<?xml version="1.0" standalone="no"?>
<!DOCTYPE svg PUBLIC "-//W3C//DTD SVG 20010904//EN"
 "http://www.w3.org/TR/2001/REC-SVG-20010904/DTD/svg10.dtd">
<svg version="1.0" xmlns="http://www.w3.org/2000/svg"
 width="1024.000000pt" height="1024.000000pt" viewBox="0 0 1024.000000 1024.000000"
 preserveAspectRatio="xMidYMid meet">
<metadata>
Created by potrace 1.11, written by Peter Selinger 2001-2013
</metadata>
<g transform="translate(0.000000,1024.000000) scale(0.100000,-0.100000)"
fill="#000000" stroke="none">
<path d="M2220 10233 c-572 -44 -1109 -292 -1515 -698 -401 -400 -642 -915
-695 -1480 -14 -155 -14 -5718 1 -5875 106 -1151 1021 -2064 2174 -2170 156
-14 5720 -14 5875 1 1151 106 2064 1021 2170 2174 14 156 14 5720 -1 5875
-106 1151 -1021 2064 -2174 2170 -101 9 -5717 12 -5835 3z m3270 -2013 c397
-27 764 -87 1122 -181 75 -20 122 -38 126 -47 8 -21 -32 -336 -73 -577 -157
-924 -473 -1745 -950 -2470 -51 -77 -120 -177 -154 -223 -33 -45 -61 -85 -61
-90 1 -16 347 -407 360 -407 19 0 236 288 399 530 421 624 692 1212 831 1802
18 78 58 133 121 168 47 25 64 29 129 29 89 -1 133 -18 195 -75 54 -50 84
-113 92 -193 6 -71 -24 -209 -104 -466 -195 -633 -605 -1370 -1150 -2069 -58
-74 -107 -139 -109 -146 -3 -6 33 -47 78 -91 137 -130 278 -257 282 -253 134
165 354 462 485 654 120 175 149 208 214 241 181 93 397 -39 397 -242 0 -34
-6 -80 -14 -102 -30 -85 -331 -509 -610 -857 -151 -190 -377 -455 -388 -455
-10 0 -239 194 -458 389 -226 201 -765 739 -952 951 -402 455 -749 921 -986
1325 -105 178 -83 163 -187 125 -167 -62 -415 -180 -415 -199 0 -16 208 -354
320 -520 330 -491 758 -1009 1268 -1533 110 -113 159 -171 177 -210 63 -135 6
-293 -130 -363 -48 -25 -70 -30 -124 -29 -116 1 -149 27 -480 374 -597 628
-1081 1250 -1416 1817 -50 84 -94 153 -98 153 -11 0 -363 -238 -400 -270 -10
-8 153 -280 310 -516 139 -210 163 -263 163 -367 0 -89 -21 -137 -82 -193 -58
-54 -102 -68 -193 -62 -127 8 -190 61 -343 290 -240 359 -542 887 -528 923 6
18 261 222 466 375 797 592 1524 902 2278 970 164 15 570 8 727 -14 83 -11
112 -11 117 -3 28 45 162 407 153 415 -7 7 -146 30 -300 49 -199 25 -693 25
-895 0 -607 -75 -1061 -229 -1650 -561 -185 -104 -189 -106 -261 -106 -134 0
-237 110 -247 265 -9 147 54 234 249 345 175 99 459 240 614 304 797 328 1693
424 2548 273 43 -8 79 -11 81 -8 15 23 92 469 83 477 -7 8 -68 19 -202 40
-235 35 -377 46 -715 53 -389 9 -407 12 -510 73 -149 89 -163 282 -30 402 48
44 112 73 184 85 72 12 474 13 646 1z m-1384 -134 c100 -47 164 -158 164 -287
0 -81 -17 -130 -63 -177 -47 -49 -65 -56 -273 -107 -134 -33 -199 -44 -224
-40 -141 25 -240 164 -228 320 8 99 56 173 140 216 48 25 341 98 393 98 22 1
63 -10 91 -23z m3521 -306 c108 -47 183 -160 183 -275 0 -78 -28 -273 -46
-322 -57 -155 -309 -178 -447 -40 -76 76 -92 153 -72 349 8 79 18 156 21 171
11 53 78 113 154 138 41 14 155 2 207 -21z m-4569 -36 c93 -46 152 -148 152
-263 0 -77 -23 -140 -71 -195 -33 -37 -75 -63 -230 -141 -316 -160 -524 -287
-876 -536 -99 -71 -200 -136 -223 -144 -155 -55 -300 50 -317 228 -7 80 15
163 64 235 55 81 383 320 703 512 137 82 569 303 625 319 58 17 119 12 173
-15z m5503 -589 c105 -36 176 -142 186 -276 18 -250 -141 -1066 -231 -1183
-38 -51 -117 -86 -191 -86 -90 0 -151 24 -211 84 -97 97 -106 188 -44 431 49
194 100 448 135 665 34 218 42 249 71 288 62 81 179 113 285 77z m-6325 -1105
c91 -35 164 -148 172 -266 6 -94 -15 -158 -74 -223 -47 -52 -185 -165 -248
-202 -93 -55 -177 -44 -260 32 -116 106 -139 285 -54 413 29 44 198 178 292
232 45 26 123 32 172 14z m5846 -728 c66 -29 132 -93 158 -154 18 -43 22 -65
18 -123 -4 -62 -13 -87 -76 -216 -104 -213 -166 -268 -302 -269 -144 0 -266
108 -286 252 -9 61 6 106 96 292 84 175 107 202 187 232 50 19 147 12 205 -14z
m-4405 -1937 c32 -10 69 -32 101 -60 62 -56 184 -199 206 -242 45 -89 25 -198
-50 -282 -69 -76 -131 -105 -224 -106 -103 0 -144 26 -260 160 -105 123 -130
168 -137 247 -7 74 15 136 71 196 82 89 184 119 293 87z m789 -840 c42 -21
113 -83 298 -264 133 -130 305 -292 382 -360 291 -259 306 -273 330 -325 60
-129 5 -272 -131 -344 -42 -22 -63 -27 -130 -27 -135 0 -166 20 -485 312 -96
87 -265 247 -377 357 -183 179 -207 206 -241 274 -33 68 -37 84 -37 152 1 83
15 122 69 178 56 61 115 83 204 78 42 -3 80 -13 118 -31z m1520 1 c80 -37 217
-165 251 -234 65 -132 11 -272 -131 -338 -71 -33 -172 -33 -241 0 -70 33 -225
163 -252 211 -31 54 -31 147 -2 210 69 146 239 214 375 151z"/>
</g>
</svg>
