<?xml version="1.0" standalone="no"?>
<!DOCTYPE svg PUBLIC "-//W3C//DTD SVG 20010904//EN"
 "http://www.w3.org/TR/2001/REC-SVG-20010904/DTD/svg10.dtd">
<svg version="1.0" xmlns="http://www.w3.org/2000/svg"
 width="1024.000000pt" height="1024.000000pt" viewBox="0 0 1024.000000 1024.000000"
 preserveAspectRatio="xMidYMid meet">
<metadata>
Created by potrace 1.11, written by Peter Selinger 2001-2013
</metadata>
<g transform="translate(0.000000,1024.000000) scale(0.100000,-0.100000)"
fill="#000000" stroke="none">
<path d="M382 9893 l3 -327 4410 0 4410 -1 0 -3213 c0 -1768 -2 -3217 -5
-3221 -5 -7 -39 -28 -152 -92 -96 -56 -108 -62 -383 -221 -137 -80 -401 -231
-585 -338 -184 -106 -382 -220 -440 -254 -58 -34 -226 -132 -373 -216 -147
-85 -282 -163 -300 -174 -18 -10 -95 -54 -172 -99 -190 -109 -188 -107 -290
-167 -49 -29 -114 -66 -143 -82 -30 -17 -97 -56 -150 -87 -54 -31 -104 -60
-112 -64 -8 -4 -31 -17 -50 -28 -41 -25 -293 -171 -530 -307 -91 -52 -213
-123 -273 -158 -59 -35 -115 -64 -124 -64 -15 0 -84 39 -413 231 -63 36 -133
77 -155 89 -22 12 -199 114 -393 227 -194 112 -369 213 -388 224 -20 11 -132
76 -250 144 -118 69 -216 125 -219 125 -2 0 -28 15 -57 33 -29 19 -78 47 -108
64 -30 17 -125 71 -210 121 -85 49 -357 207 -605 349 -429 248 -560 323 -969
560 -98 57 -182 103 -187 103 -5 0 -9 3 -9 8 0 4 -12 13 -27 19 -16 7 -43 22
-60 33 l-33 20 0 1574 0 1575 -325 0 -325 0 0 -37 c-1 -53 -1 -3388 -1 -3443
l1 -45 172 -100 c94 -54 177 -100 185 -102 7 -2 13 -8 13 -13 0 -5 4 -9 9 -9
5 0 49 -23 98 -51 48 -29 106 -62 128 -74 22 -13 108 -62 190 -110 83 -48 168
-98 190 -110 22 -13 229 -132 460 -265 583 -337 675 -390 715 -413 19 -10 118
-68 220 -127 178 -103 349 -202 417 -241 17 -10 139 -80 270 -155 131 -76 348
-201 483 -279 135 -78 423 -244 640 -370 217 -125 415 -239 440 -253 25 -14
58 -33 74 -43 l28 -17 189 109 c104 60 204 118 222 128 57 33 474 273 807 466
276 160 388 224 615 355 17 10 71 41 120 70 50 29 108 62 130 75 22 12 128 73
235 135 107 62 209 120 225 130 84 48 294 170 325 189 19 11 42 24 50 28 8 4
58 32 110 63 52 31 102 59 110 63 8 4 24 13 35 20 11 7 56 33 100 58 68 39
325 188 433 250 17 11 47 27 65 38 79 45 568 328 627 362 36 21 126 73 201
115 l137 78 -2 3730 -1 3731 -4738 3 -4737 2 2 -327z"/>
<path d="M380 8585 l0 -325 3760 0 3759 0 -2 -2191 -2 -2190 -130 -76 c-71
-41 -155 -89 -185 -106 -81 -47 -276 -159 -313 -181 -18 -10 -138 -79 -267
-154 -129 -74 -289 -167 -355 -205 -66 -38 -136 -79 -155 -90 -104 -59 -1214
-700 -1289 -744 -41 -24 -79 -42 -85 -40 -6 3 -153 87 -326 187 -173 101 -334
193 -357 206 -23 13 -108 62 -188 109 -81 47 -151 85 -156 85 -5 0 -9 5 -9 10
0 6 -4 10 -9 10 -5 0 -294 165 -642 366 -349 201 -652 376 -674 388 -22 13
-96 56 -165 96 -69 40 -145 84 -170 98 -25 14 -52 30 -60 36 -14 10 -16 145
-15 1206 l0 1195 -327 2 -327 1 0 -1383 c0 -1048 3 -1386 12 -1393 7 -5 32
-21 57 -34 36 -21 223 -128 520 -301 19 -11 56 -32 81 -46 103 -59 335 -193
349 -201 8 -6 67 -39 130 -75 63 -36 122 -69 130 -75 8 -5 80 -46 159 -92 80
-46 168 -96 195 -112 28 -16 265 -153 526 -304 261 -151 491 -283 510 -294 19
-11 80 -46 135 -78 55 -32 118 -68 140 -81 109 -62 143 -82 175 -100 273 -160
314 -181 329 -172 15 9 247 144 315 183 30 17 462 266 521 300 17 10 57 33 90
52 252 145 404 233 430 248 17 10 89 51 160 92 72 42 171 99 220 128 50 28
133 77 185 106 52 30 102 59 110 64 8 6 71 42 140 81 209 120 518 298 645 372
66 38 138 80 160 92 22 13 96 56 165 95 69 40 157 91 195 113 39 22 72 41 73
43 3 2 5 5047 2 5347 l0 57 -4085 0 -4085 0 0 -325z"/>
<path d="M389 7592 c0 -23 0 -592 0 -617 1 -20 7 -20 3104 -20 l3102 0 -2
-1155 c0 -635 -2 -1158 -2 -1162 -1 -3 -31 -23 -68 -45 -38 -21 -77 -43 -88
-50 -11 -7 -27 -15 -35 -19 -8 -4 -73 -42 -146 -85 -72 -42 -151 -88 -175
-101 -24 -14 -159 -92 -299 -173 -140 -81 -271 -157 -290 -167 -19 -11 -107
-62 -196 -114 -88 -52 -166 -94 -172 -94 -7 0 -213 116 -459 258 -247 142
-575 332 -730 421 l-283 163 0 822 0 822 -325 1 c-179 0 -325 -2 -326 -6 -1
-3 -2 -455 -3 -1004 -1 -876 1 -1000 14 -1011 16 -13 498 -292 537 -310 13 -6
23 -14 23 -18 0 -5 4 -8 10 -8 5 0 31 -13 57 -29 27 -15 172 -99 323 -186 151
-87 355 -205 452 -261 97 -57 182 -104 187 -104 6 0 11 -4 11 -10 0 -5 4 -10
9 -10 8 0 191 -104 434 -246 32 -19 63 -34 68 -34 11 0 95 45 187 102 34 21
65 38 67 38 3 0 22 11 43 24 20 12 114 67 207 121 215 123 206 119 355 205 69
40 166 95 215 124 50 28 98 55 107 61 35 21 134 79 166 97 43 24 65 37 282
163 102 59 255 147 341 197 l155 90 -1 1666 c-1 917 -3 1670 -3 1673 -1 4
-1543 7 -3427 7 -3217 1 -3425 0 -3426 -16z"/>
</g>
</svg>
