<svg width="168" height="40" viewBox="0 0 168 40" fill="none" xmlns="http://www.w3.org/2000/svg">
<path fill-rule="evenodd" clip-rule="evenodd" d="M40 0H0V40H40V0ZM29.3587 11.1916H9.14062V9.69755H30.8545V26.7791L20.0055 33.0348L9.15645 26.7791V18.7139H10.6522V25.9234L20.0055 31.3189L29.3587 25.9239V11.1916ZM26.3672 14.1801H9.14062V12.6905H27.863V25.0589L20.0055 29.5884L12.148 25.0589V18.7139H13.6432V24.2026L20.0055 27.872L26.3672 24.2026V14.1801ZM23.3757 17.1681H9.15645V15.6741H24.8714V23.3327L20.0055 26.1414L15.1346 23.3327V18.7183H16.6303V22.4819L20.0011 24.425L23.3757 22.4775V17.1681Z" fill="white"/>
<path d="M49.56 14V28H51.98V14H49.56ZM54.08 28C55.1467 28 56.12 27.8333 57 27.5C57.88 27.1667 58.64 26.6933 59.28 26.08C59.92 25.4667 60.4133 24.7333 60.76 23.88C61.1067 23.0133 61.28 22.0533 61.28 21C61.28 19.9467 61.1067 18.9933 60.76 18.14C60.4133 17.2733 59.92 16.5333 59.28 15.92C58.64 15.3067 57.88 14.8333 57 14.5C56.12 14.1667 55.1467 14 54.08 14H51.02V16.22H54.02C54.7133 16.22 55.3533 16.32 55.94 16.52C56.5267 16.72 57.04 17.02 57.48 17.42C57.92 17.82 58.26 18.32 58.5 18.92C58.74 19.52 58.86 20.2133 58.86 21C58.86 21.7867 58.74 22.48 58.5 23.08C58.26 23.68 57.92 24.18 57.48 24.58C57.04 24.98 56.5267 25.28 55.94 25.48C55.3533 25.68 54.7133 25.78 54.02 25.78H51.02V28H54.08ZM67.8034 28.2C68.8701 28.2 69.7834 27.9933 70.5434 27.58C71.3168 27.1533 71.9434 26.5267 72.4234 25.7L70.5434 24.96C70.2501 25.4533 69.8834 25.82 69.4434 26.06C69.0034 26.3 68.4901 26.42 67.9034 26.42C67.3434 26.42 66.8701 26.3 66.4834 26.06C66.0968 25.8067 65.8034 25.4533 65.6034 25C65.4034 24.5333 65.3034 23.9733 65.3034 23.32C65.3034 22.8133 65.3634 22.3733 65.4834 22C65.6034 21.6133 65.7701 21.2933 65.9834 21.04C66.2101 20.7733 66.4768 20.5733 66.7834 20.44C67.1034 20.3067 67.4701 20.24 67.8834 20.24C68.3368 20.24 68.7301 20.34 69.0634 20.54C69.4101 20.74 69.6768 21.02 69.8634 21.38C70.0634 21.74 70.1634 22.1667 70.1634 22.66C70.1634 22.7533 70.1368 22.8667 70.0834 23C70.0434 23.1333 69.9968 23.24 69.9434 23.32L70.6234 22.4H64.3834V23.9H72.4834C72.4834 23.8467 72.4834 23.7667 72.4834 23.66C72.4968 23.54 72.5034 23.42 72.5034 23.3C72.5034 22.3133 72.3168 21.4733 71.9434 20.78C71.5834 20.0733 71.0634 19.5333 70.3834 19.16C69.7034 18.7867 68.8768 18.6 67.9034 18.6C67.1701 18.6 66.5101 18.7133 65.9234 18.94C65.3368 19.1667 64.8301 19.4933 64.4034 19.92C63.9901 20.3333 63.6701 20.84 63.4434 21.44C63.2168 22.0267 63.1034 22.68 63.1034 23.4C63.1034 24.36 63.2968 25.2 63.6834 25.92C64.0701 26.64 64.6168 27.2 65.3234 27.6C66.0301 28 66.8568 28.2 67.8034 28.2ZM74.2052 18.8V20.7H79.4852V18.8H74.2052ZM79.2652 14.72L80.2652 13.04C80.1585 12.9067 80.0052 12.7733 79.8052 12.64C79.6185 12.5067 79.3918 12.3933 79.1252 12.3C78.8585 12.2067 78.5452 12.16 78.1852 12.16C77.5452 12.16 76.9985 12.28 76.5452 12.52C76.1052 12.76 75.7718 13.12 75.5452 13.6C75.3185 14.08 75.2052 14.68 75.2052 15.4V28H77.3252V15.82C77.3252 15.4333 77.3652 15.12 77.4452 14.88C77.5252 14.64 77.6318 14.4667 77.7652 14.36C77.9118 14.2533 78.0852 14.2 78.2852 14.2C78.4585 14.2 78.6318 14.2333 78.8052 14.3C78.9785 14.3667 79.1318 14.5067 79.2652 14.72ZM85.537 28.2C86.6037 28.2 87.517 27.9933 88.277 27.58C89.0504 27.1533 89.677 26.5267 90.157 25.7L88.277 24.96C87.9837 25.4533 87.617 25.82 87.177 26.06C86.737 26.3 86.2237 26.42 85.637 26.42C85.077 26.42 84.6037 26.3 84.217 26.06C83.8304 25.8067 83.537 25.4533 83.337 25C83.137 24.5333 83.037 23.9733 83.037 23.32C83.037 22.8133 83.097 22.3733 83.217 22C83.337 21.6133 83.5037 21.2933 83.717 21.04C83.9437 20.7733 84.2104 20.5733 84.517 20.44C84.837 20.3067 85.2037 20.24 85.617 20.24C86.0704 20.24 86.4637 20.34 86.797 20.54C87.1437 20.74 87.4104 21.02 87.597 21.38C87.797 21.74 87.897 22.1667 87.897 22.66C87.897 22.7533 87.8704 22.8667 87.817 23C87.777 23.1333 87.7304 23.24 87.677 23.32L88.357 22.4H82.117V23.9H90.217C90.217 23.8467 90.217 23.7667 90.217 23.66C90.2304 23.54 90.237 23.42 90.237 23.3C90.237 22.3133 90.0504 21.4733 89.677 20.78C89.317 20.0733 88.797 19.5333 88.117 19.16C87.437 18.7867 86.6104 18.6 85.637 18.6C84.9037 18.6 84.2437 18.7133 83.657 18.94C83.0704 19.1667 82.5637 19.4933 82.137 19.92C81.7237 20.3333 81.4037 20.84 81.177 21.44C80.9504 22.0267 80.837 22.68 80.837 23.4C80.837 24.36 81.0304 25.2 81.417 25.92C81.8037 26.64 82.3504 27.2 83.057 27.6C83.7637 28 84.5904 28.2 85.537 28.2ZM98.6187 22.4V28H100.839V22.16C100.839 21.4133 100.712 20.78 100.459 20.26C100.219 19.7267 99.8587 19.32 99.3787 19.04C98.9121 18.7467 98.3321 18.6 97.6387 18.6C97.0121 18.6 96.4654 18.7333 95.9987 19C95.5321 19.2667 95.1521 19.6733 94.8587 20.22V18.8H92.6987V28H94.8587V22.4C94.8587 21.9867 94.9454 21.6267 95.1187 21.32C95.2921 21.0133 95.5321 20.7733 95.8387 20.6C96.1587 20.4267 96.5187 20.34 96.9187 20.34C97.3054 20.34 97.6254 20.42 97.8787 20.58C98.1321 20.74 98.3187 20.9733 98.4387 21.28C98.5587 21.5733 98.6187 21.9467 98.6187 22.4ZM110.917 12.4V28H113.097V12.4H110.917ZM103.297 23.4C103.297 24.4 103.504 25.26 103.917 25.98C104.331 26.7 104.877 27.2533 105.557 27.64C106.237 28.0133 106.977 28.2 107.777 28.2C108.351 28.2 108.877 28.0933 109.357 27.88C109.837 27.6533 110.251 27.3333 110.597 26.92C110.944 26.5067 111.211 26.0067 111.397 25.42C111.597 24.82 111.697 24.1467 111.697 23.4C111.697 22.6533 111.597 21.9867 111.397 21.4C111.211 20.8 110.944 20.2933 110.597 19.88C110.251 19.4667 109.837 19.1533 109.357 18.94C108.877 18.7133 108.351 18.6 107.777 18.6C106.977 18.6 106.237 18.7933 105.557 19.18C104.877 19.5533 104.331 20.1 103.917 20.82C103.504 21.5267 103.297 22.3867 103.297 23.4ZM105.537 23.4C105.537 22.7867 105.664 22.2667 105.917 21.84C106.171 21.4 106.504 21.0667 106.917 20.84C107.344 20.6 107.804 20.48 108.297 20.48C108.604 20.48 108.911 20.5467 109.217 20.68C109.537 20.8 109.824 20.9867 110.077 21.24C110.331 21.48 110.531 21.7867 110.677 22.16C110.837 22.52 110.917 22.9333 110.917 23.4C110.917 23.8667 110.837 24.2867 110.677 24.66C110.531 25.02 110.331 25.3267 110.077 25.58C109.824 25.82 109.537 26.0067 109.217 26.14C108.911 26.26 108.604 26.32 108.297 26.32C107.804 26.32 107.344 26.2067 106.917 25.98C106.504 25.74 106.171 25.4067 105.917 24.98C105.664 24.54 105.537 24.0133 105.537 23.4ZM117.515 25.14C117.515 24.8467 117.582 24.6 117.715 24.4C117.848 24.2 118.055 24.0467 118.335 23.94C118.628 23.82 119.002 23.76 119.455 23.76C119.975 23.76 120.468 23.8267 120.935 23.96C121.402 24.0933 121.842 24.3067 122.255 24.6V23.5C122.135 23.3533 121.928 23.1933 121.635 23.02C121.342 22.8333 120.968 22.6733 120.515 22.54C120.075 22.4067 119.548 22.34 118.935 22.34C118.175 22.34 117.528 22.46 116.995 22.7C116.462 22.94 116.048 23.28 115.755 23.72C115.475 24.1467 115.335 24.66 115.335 25.26C115.335 25.8867 115.482 26.42 115.775 26.86C116.068 27.3 116.462 27.6333 116.955 27.86C117.448 28.0867 117.982 28.2 118.555 28.2C119.088 28.2 119.608 28.1067 120.115 27.92C120.635 27.72 121.062 27.4267 121.395 27.04C121.742 26.64 121.915 26.1467 121.915 25.56L121.595 24.36C121.595 24.8267 121.488 25.2267 121.275 25.56C121.062 25.8933 120.775 26.1467 120.415 26.32C120.055 26.4933 119.662 26.58 119.235 26.58C118.902 26.58 118.602 26.5267 118.335 26.42C118.082 26.3 117.882 26.1333 117.735 25.92C117.588 25.7067 117.515 25.4467 117.515 25.14ZM116.835 21.2C116.968 21.1067 117.168 20.9933 117.435 20.86C117.715 20.7267 118.042 20.6067 118.415 20.5C118.788 20.3933 119.195 20.34 119.635 20.34C119.915 20.34 120.175 20.3667 120.415 20.42C120.655 20.4733 120.862 20.56 121.035 20.68C121.222 20.8 121.362 20.96 121.455 21.16C121.548 21.3467 121.595 21.58 121.595 21.86V28H123.715V21.44C123.715 20.8267 123.548 20.3133 123.215 19.9C122.882 19.4733 122.422 19.1467 121.835 18.92C121.262 18.6933 120.595 18.58 119.835 18.58C118.982 18.58 118.228 18.7 117.575 18.94C116.922 19.18 116.382 19.4267 115.955 19.68L116.835 21.2ZM128.733 12.4H126.553V28H128.733V12.4ZM136.353 23.4C136.353 22.3867 136.146 21.5267 135.733 20.82C135.32 20.1 134.773 19.5533 134.093 19.18C133.413 18.7933 132.673 18.6 131.873 18.6C131.3 18.6 130.773 18.7133 130.293 18.94C129.813 19.1533 129.4 19.4667 129.053 19.88C128.706 20.2933 128.433 20.8 128.233 21.4C128.046 21.9867 127.953 22.6533 127.953 23.4C127.953 24.1467 128.046 24.82 128.233 25.42C128.433 26.0067 128.706 26.5067 129.053 26.92C129.4 27.3333 129.813 27.6533 130.293 27.88C130.773 28.0933 131.3 28.2 131.873 28.2C132.673 28.2 133.413 28.0133 134.093 27.64C134.773 27.2533 135.32 26.7 135.733 25.98C136.146 25.26 136.353 24.4 136.353 23.4ZM134.113 23.4C134.113 24.0133 133.986 24.54 133.733 24.98C133.48 25.4067 133.146 25.74 132.733 25.98C132.32 26.2067 131.86 26.32 131.353 26.32C131.046 26.32 130.733 26.26 130.413 26.14C130.106 26.0067 129.826 25.82 129.573 25.58C129.32 25.3267 129.113 25.02 128.953 24.66C128.806 24.2867 128.733 23.8667 128.733 23.4C128.733 22.9333 128.806 22.52 128.953 22.16C129.113 21.7867 129.32 21.48 129.573 21.24C129.826 20.9867 130.106 20.8 130.413 20.68C130.733 20.5467 131.046 20.48 131.353 20.48C131.86 20.48 132.32 20.6 132.733 20.84C133.146 21.0667 133.48 21.4 133.733 21.84C133.986 22.2667 134.113 22.7867 134.113 23.4ZM138.091 23.4C138.091 24.3333 138.304 25.1667 138.731 25.9C139.171 26.62 139.764 27.1867 140.511 27.6C141.271 28 142.118 28.2 143.051 28.2C143.998 28.2 144.844 28 145.591 27.6C146.338 27.1867 146.924 26.62 147.351 25.9C147.791 25.1667 148.011 24.3333 148.011 23.4C148.011 22.4533 147.791 21.62 147.351 20.9C146.924 20.18 146.338 19.62 145.591 19.22C144.844 18.8067 143.998 18.6 143.051 18.6C142.118 18.6 141.271 18.8067 140.511 19.22C139.764 19.62 139.171 20.18 138.731 20.9C138.304 21.62 138.091 22.4533 138.091 23.4ZM140.311 23.4C140.311 22.8267 140.431 22.3267 140.671 21.9C140.911 21.46 141.238 21.12 141.651 20.88C142.064 20.6267 142.531 20.5 143.051 20.5C143.571 20.5 144.038 20.6267 144.451 20.88C144.864 21.12 145.191 21.46 145.431 21.9C145.671 22.3267 145.791 22.8267 145.791 23.4C145.791 23.9733 145.671 24.48 145.431 24.92C145.191 25.3467 144.864 25.6867 144.451 25.94C144.038 26.18 143.571 26.3 143.051 26.3C142.531 26.3 142.064 26.18 141.651 25.94C141.238 25.6867 140.911 25.3467 140.671 24.92C140.431 24.48 140.311 23.9733 140.311 23.4ZM149.18 18.8V20.7H154.4V18.8H149.18ZM150.72 15.6V28H152.86V15.6H150.72Z" fill="white"/>
</svg>
