<svg width="40" height="40" viewBox="0 0 40 40" fill="none" xmlns="http://www.w3.org/2000/svg">
<g clip-path="url(#clip0)">
<path fill-rule="evenodd" clip-rule="evenodd" d="M40 0H0V40H40V0ZM29.3587 11.1916H9.14062V9.69755H30.8545V26.7791L20.0055 33.0348L9.15645 26.7791V18.7139H10.6522V25.9234L20.0055 31.3189L29.3587 25.9239V11.1916ZM26.3672 14.1801H9.14062V12.6905H27.863V25.0589L20.0055 29.5884L12.148 25.0589V18.7139H13.6432V24.2026L20.0055 27.872L26.3672 24.2026V14.1801ZM23.3757 17.1681H9.15645V15.6741H24.8714V23.3327L20.0055 26.1414L15.1346 23.3327V18.7183H16.6303V22.4819L20.0011 24.425L23.3757 22.4775V17.1681Z" fill="white"/>
</g>
<defs>
<clipPath id="clip0">
<rect width="40" height="40" fill="white"/>
</clipPath>
</defs>
</svg>
