<svg width="168" height="40" viewBox="0 0 168 40" fill="none" xmlns="http://www.w3.org/2000/svg">
<g clip-path="url(#clip0)">
<path fill-rule="evenodd" clip-rule="evenodd" d="M38.375 27.0828C39.2227 24.8849 39.6875 22.4967 39.6875 20C39.6875 17.5033 39.2227 15.1151 38.375 12.9172V11.4688C38.375 6.0322 33.9678 1.625 28.5312 1.625H27.0828C24.8849 0.777266 22.4967 0.3125 20 0.3125C17.5033 0.3125 15.1151 0.777266 12.9172 1.625H11.4688C6.0322 1.625 1.625 6.0322 1.625 11.4688V12.9172C0.777266 15.1151 0.3125 17.5033 0.3125 20C0.3125 22.4967 0.777266 24.8849 1.625 27.0828V28.5312C1.625 33.9678 6.0322 38.375 11.4688 38.375H12.9172C15.1151 39.2227 17.5033 39.6875 20 39.6875C22.4967 39.6875 24.8849 39.2227 27.0828 38.375H28.5312C33.9678 38.375 38.375 33.9678 38.375 28.5312V27.0828Z" fill="white"/>
<path d="M18.0586 29.533C18.2121 29.6863 18.3658 29.8401 18.5216 29.9931C18.8003 30.2677 19.0858 30.5419 19.3776 30.8146C19.8904 31.3 20.4181 31.7702 20.9587 32.2245C22.0817 33.1678 20.6919 34.7004 19.4409 33.6099C18.6615 32.9306 17.8785 32.203 17.101 31.4381C16.9669 31.307 16.8333 31.1741 16.7003 31.0406C15.4655 29.8006 16.9076 28.3815 18.0586 29.533ZM23.4404 29.439C23.528 29.5173 23.6158 29.5952 23.7034 29.6723C24.8432 30.6683 23.3993 31.9455 22.4008 31.1149C22.263 30.9997 22.1186 30.892 21.9803 30.7782C21.0671 30.0291 22.3704 28.4825 23.4404 29.439ZM20.1076 8.84375C22.0382 8.84375 23.9688 9.11665 25.838 9.66251C25.4114 14.0597 24.0446 18.1795 21.3572 21.7401C21.766 22.2424 22.2022 22.7483 22.665 23.2583C24.6574 20.7398 26.3423 17.9326 27.0862 14.7851C27.3483 13.6715 29.4029 13.9686 28.9506 15.6573C28.0448 19.0442 26.2646 22.0208 24.0732 24.739C24.511 25.1531 24.9332 25.5528 25.392 25.9508C26.101 25.0756 26.7902 24.151 27.4291 23.1868C28.2975 21.8766 29.9173 23.0877 29.1604 24.2368C28.0982 25.8479 26.9072 27.3507 25.7109 28.7029C22.2983 25.9003 18.9341 22.4084 16.7613 18.5534C16.139 18.7611 15.5246 19.0313 14.9176 19.3634C16.5315 22.2645 18.7185 24.8343 21.0575 27.1742C22.0207 28.1378 20.6241 29.6267 19.5804 28.5435C17.1994 26.0552 14.9122 23.496 13.2143 20.4746C12.7128 20.7983 12.2205 21.1365 11.7386 21.488C12.175 22.255 12.6511 23.0035 13.1524 23.728C14.2033 25.2457 12.4565 26.2635 11.5788 25.008C10.7309 23.7953 9.9642 22.5297 9.29498 21.2099C13.1067 18.0282 17.1355 15.6913 22.2186 16.4816C22.4491 15.9623 22.6468 15.4477 22.8117 14.9382C20.4033 14.4875 17.889 14.6489 15.5591 15.41C14.3726 15.7978 13.2347 16.3946 12.1175 17.0404C10.967 17.7046 10.0713 15.881 11.3447 15.145C12.5404 14.4544 13.7724 13.8375 15.2169 13.3918C17.8213 12.5889 20.6137 12.4403 23.2881 12.9627C23.4091 12.3846 23.5168 11.8007 23.6102 11.2119C22.454 10.9881 21.2811 10.8761 20.1076 10.8761C19.9322 10.8761 19.7567 10.8789 19.5813 10.8838C17.4073 10.9451 17.654 8.85983 19.3002 8.85983C19.5696 8.85983 19.8385 8.84375 20.1076 8.84375ZM15.3423 26.5787C15.4821 26.7434 15.6217 26.9073 15.7619 27.0683C16.6097 28.0431 15.0587 29.3446 14.2119 28.3696C14.0616 28.1942 13.9105 28.0195 13.7617 27.8428C12.8602 26.7706 14.4389 25.5072 15.3423 26.5787ZM31.1812 20.6742C31.063 20.9243 30.9408 21.1722 30.8142 21.419C30.1486 22.718 28.396 21.6999 29.0126 20.4978C29.1518 20.2269 29.2854 19.9537 29.4127 19.6786C29.9234 18.5793 31.7673 19.433 31.1812 20.6742ZM9.7594 18.6541C9.57695 18.7922 9.39543 18.9315 9.21625 19.0712C8.19769 19.8647 7.14175 18.0579 8.25656 17.2444C8.4827 17.0792 8.70697 16.9167 8.92939 16.7569C9.84724 16.0985 10.935 17.7679 9.7594 18.6541ZM33.037 14.0176C32.9513 15.2394 32.7144 16.4493 32.3584 17.6354C32.0274 18.7389 30.0694 18.3234 30.5082 16.7419C30.8189 15.6187 31.0291 14.467 31.1926 13.314C31.327 12.3673 33.1601 12.2723 33.037 14.0176ZM12.4441 12.5458C12.3792 12.5756 12.3145 12.6059 12.2502 12.6362C10.8055 13.3189 9.65661 14.1137 8.43971 14.9959C7.20809 15.8884 6.3019 14.0333 7.56693 13.1483C8.92026 12.0941 10.3738 11.2338 11.8907 10.567C12.9606 10.097 13.7998 11.9236 12.4441 12.5458ZM29.6606 11.6763C29.6197 11.9892 29.6043 12.1083 29.5585 12.423C29.4078 13.4556 27.431 13.2763 27.6046 11.8007C27.6431 11.4684 27.6524 11.3548 27.6809 11.0209C27.7718 9.95522 29.8585 10.1616 29.6606 11.6763ZM16.2569 11.2852C15.9385 11.3548 15.6206 11.4328 15.305 11.5194C14.1203 11.844 13.5458 9.88654 14.8431 9.53904C15.1683 9.45208 15.4954 9.37101 15.8236 9.29952C16.966 9.05074 17.4773 11.0197 16.2569 11.2852Z" fill="#0B1B44"/>
<path d="M56.404 15.4V28H58.582V15.4H56.404ZM60.472 28C61.432 28 62.308 27.85 63.1 27.55C63.892 27.25 64.576 26.824 65.152 26.272C65.728 25.72 66.172 25.06 66.484 24.292C66.796 23.512 66.952 22.648 66.952 21.7C66.952 20.752 66.796 19.894 66.484 19.126C66.172 18.346 65.728 17.68 65.152 17.128C64.576 16.576 63.892 16.15 63.1 15.85C62.308 15.55 61.432 15.4 60.472 15.4H57.718V17.398H60.418C61.042 17.398 61.618 17.488 62.146 17.668C62.674 17.848 63.136 18.118 63.532 18.478C63.928 18.838 64.234 19.288 64.45 19.828C64.666 20.368 64.774 20.992 64.774 21.7C64.774 22.408 64.666 23.032 64.45 23.572C64.234 24.112 63.928 24.562 63.532 24.922C63.136 25.282 62.674 25.552 62.146 25.732C61.618 25.912 61.042 26.002 60.418 26.002H57.718V28H60.472ZM72.8231 28.18C73.7831 28.18 74.6051 27.994 75.2891 27.622C75.9851 27.238 76.5491 26.674 76.9811 25.93L75.2891 25.264C75.0251 25.708 74.6951 26.038 74.2991 26.254C73.9031 26.47 73.4411 26.578 72.9131 26.578C72.4091 26.578 71.9831 26.47 71.6351 26.254C71.2871 26.026 71.0231 25.708 70.8431 25.3C70.6631 24.88 70.5731 24.376 70.5731 23.788C70.5731 23.332 70.6271 22.936 70.7351 22.6C70.8431 22.252 70.9931 21.964 71.1851 21.736C71.3891 21.496 71.6291 21.316 71.9051 21.196C72.1931 21.076 72.5231 21.016 72.8951 21.016C73.3031 21.016 73.6571 21.106 73.9571 21.286C74.2691 21.466 74.5091 21.718 74.6771 22.042C74.8571 22.366 74.9471 22.75 74.9471 23.194C74.9471 23.278 74.9231 23.38 74.8751 23.5C74.8391 23.62 74.7971 23.716 74.7491 23.788L75.3611 22.96H69.7451V24.31H77.0351C77.0351 24.262 77.0351 24.19 77.0351 24.094C77.0471 23.986 77.0531 23.878 77.0531 23.77C77.0531 22.882 76.8851 22.126 76.5491 21.502C76.2251 20.866 75.7571 20.38 75.1451 20.044C74.5331 19.708 73.7891 19.54 72.9131 19.54C72.2531 19.54 71.6591 19.642 71.1311 19.846C70.6031 20.05 70.1471 20.344 69.7631 20.728C69.3911 21.1 69.1031 21.556 68.8991 22.096C68.6951 22.624 68.5931 23.212 68.5931 23.86C68.5931 24.724 68.7671 25.48 69.1151 26.128C69.4631 26.776 69.9551 27.28 70.5911 27.64C71.2271 28 71.9711 28.18 72.8231 28.18ZM78.5846 19.72V21.43H83.3366V19.72H78.5846ZM83.1386 16.048L84.0386 14.536C83.9426 14.416 83.8046 14.296 83.6246 14.176C83.4566 14.056 83.2526 13.954 83.0126 13.87C82.7726 13.786 82.4906 13.744 82.1666 13.744C81.5906 13.744 81.0986 13.852 80.6906 14.068C80.2946 14.284 79.9946 14.608 79.7906 15.04C79.5866 15.472 79.4846 16.012 79.4846 16.66V28H81.3926V17.038C81.3926 16.69 81.4286 16.408 81.5006 16.192C81.5726 15.976 81.6686 15.82 81.7886 15.724C81.9206 15.628 82.0766 15.58 82.2566 15.58C82.4126 15.58 82.5686 15.61 82.7246 15.67C82.8806 15.73 83.0186 15.856 83.1386 16.048ZM88.7833 28.18C89.7433 28.18 90.5653 27.994 91.2493 27.622C91.9453 27.238 92.5093 26.674 92.9413 25.93L91.2493 25.264C90.9853 25.708 90.6553 26.038 90.2593 26.254C89.8633 26.47 89.4013 26.578 88.8733 26.578C88.3693 26.578 87.9433 26.47 87.5953 26.254C87.2473 26.026 86.9833 25.708 86.8033 25.3C86.6233 24.88 86.5333 24.376 86.5333 23.788C86.5333 23.332 86.5873 22.936 86.6953 22.6C86.8033 22.252 86.9533 21.964 87.1453 21.736C87.3493 21.496 87.5893 21.316 87.8653 21.196C88.1533 21.076 88.4833 21.016 88.8553 21.016C89.2633 21.016 89.6173 21.106 89.9173 21.286C90.2293 21.466 90.4693 21.718 90.6373 22.042C90.8173 22.366 90.9073 22.75 90.9073 23.194C90.9073 23.278 90.8833 23.38 90.8353 23.5C90.7993 23.62 90.7573 23.716 90.7093 23.788L91.3213 22.96H85.7053V24.31H92.9953C92.9953 24.262 92.9953 24.19 92.9953 24.094C93.0073 23.986 93.0133 23.878 93.0133 23.77C93.0133 22.882 92.8453 22.126 92.5093 21.502C92.1853 20.866 91.7173 20.38 91.1053 20.044C90.4933 19.708 89.7493 19.54 88.8733 19.54C88.2133 19.54 87.6193 19.642 87.0913 19.846C86.5633 20.05 86.1073 20.344 85.7233 20.728C85.3513 21.1 85.0633 21.556 84.8593 22.096C84.6553 22.624 84.5533 23.212 84.5533 23.86C84.5533 24.724 84.7273 25.48 85.0753 26.128C85.4233 26.776 85.9153 27.28 86.5513 27.64C87.1873 28 87.9313 28.18 88.7833 28.18ZM100.557 22.96V28H102.555V22.744C102.555 22.072 102.441 21.502 102.213 21.034C101.997 20.554 101.673 20.188 101.241 19.936C100.821 19.672 100.299 19.54 99.6749 19.54C99.1109 19.54 98.6189 19.66 98.1989 19.9C97.7789 20.14 97.4369 20.506 97.1729 20.998V19.72H95.2289V28H97.1729V22.96C97.1729 22.588 97.2509 22.264 97.4069 21.988C97.5629 21.712 97.7789 21.496 98.0549 21.34C98.3429 21.184 98.6669 21.106 99.0269 21.106C99.3749 21.106 99.6629 21.178 99.8909 21.322C100.119 21.466 100.287 21.676 100.395 21.952C100.503 22.216 100.557 22.552 100.557 22.96ZM111.625 13.96V28H113.587V13.96H111.625ZM104.767 23.86C104.767 24.76 104.953 25.534 105.325 26.182C105.697 26.83 106.189 27.328 106.801 27.676C107.413 28.012 108.079 28.18 108.799 28.18C109.315 28.18 109.789 28.084 110.221 27.892C110.653 27.688 111.025 27.4 111.337 27.028C111.649 26.656 111.889 26.206 112.057 25.678C112.237 25.138 112.327 24.532 112.327 23.86C112.327 23.188 112.237 22.588 112.057 22.06C111.889 21.52 111.649 21.064 111.337 20.692C111.025 20.32 110.653 20.038 110.221 19.846C109.789 19.642 109.315 19.54 108.799 19.54C108.079 19.54 107.413 19.714 106.801 20.062C106.189 20.398 105.697 20.89 105.325 21.538C104.953 22.174 104.767 22.948 104.767 23.86ZM106.783 23.86C106.783 23.308 106.897 22.84 107.125 22.456C107.353 22.06 107.653 21.76 108.025 21.556C108.409 21.34 108.823 21.232 109.267 21.232C109.543 21.232 109.819 21.292 110.095 21.412C110.383 21.52 110.641 21.688 110.869 21.916C111.097 22.132 111.277 22.408 111.409 22.744C111.553 23.068 111.625 23.44 111.625 23.86C111.625 24.28 111.553 24.658 111.409 24.994C111.277 25.318 111.097 25.594 110.869 25.822C110.641 26.038 110.383 26.206 110.095 26.326C109.819 26.434 109.543 26.488 109.267 26.488C108.823 26.488 108.409 26.386 108.025 26.182C107.653 25.966 107.353 25.666 107.125 25.282C106.897 24.886 106.783 24.412 106.783 23.86ZM117.564 25.426C117.564 25.162 117.623 24.94 117.743 24.76C117.863 24.58 118.049 24.442 118.301 24.346C118.565 24.238 118.901 24.184 119.31 24.184C119.777 24.184 120.222 24.244 120.642 24.364C121.062 24.484 121.458 24.676 121.83 24.94V23.95C121.722 23.818 121.536 23.674 121.272 23.518C121.008 23.35 120.671 23.206 120.263 23.086C119.867 22.966 119.393 22.906 118.841 22.906C118.157 22.906 117.575 23.014 117.096 23.23C116.615 23.446 116.243 23.752 115.979 24.148C115.727 24.532 115.601 24.994 115.601 25.534C115.601 26.098 115.733 26.578 115.997 26.974C116.261 27.37 116.615 27.67 117.059 27.874C117.504 28.078 117.984 28.18 118.5 28.18C118.98 28.18 119.448 28.096 119.904 27.928C120.372 27.748 120.756 27.484 121.056 27.136C121.368 26.776 121.524 26.332 121.524 25.804L121.236 24.724C121.236 25.144 121.14 25.504 120.948 25.804C120.756 26.104 120.498 26.332 120.173 26.488C119.85 26.644 119.496 26.722 119.111 26.722C118.812 26.722 118.542 26.674 118.301 26.578C118.073 26.47 117.893 26.32 117.761 26.128C117.629 25.936 117.564 25.702 117.564 25.426ZM116.951 21.88C117.071 21.796 117.251 21.694 117.491 21.574C117.744 21.454 118.038 21.346 118.374 21.25C118.71 21.154 119.076 21.106 119.472 21.106C119.723 21.106 119.957 21.13 120.173 21.178C120.39 21.226 120.576 21.304 120.732 21.412C120.9 21.52 121.026 21.664 121.11 21.844C121.194 22.012 121.236 22.222 121.236 22.474V28H123.144V22.096C123.144 21.544 122.994 21.082 122.694 20.71C122.394 20.326 121.98 20.032 121.452 19.828C120.935 19.624 120.336 19.522 119.652 19.522C118.884 19.522 118.205 19.63 117.617 19.846C117.029 20.062 116.543 20.284 116.159 20.512L116.951 21.88ZM127.66 13.96H125.698V28H127.66V13.96ZM134.518 23.86C134.518 22.948 134.332 22.174 133.96 21.538C133.588 20.89 133.096 20.398 132.484 20.062C131.872 19.714 131.206 19.54 130.486 19.54C129.97 19.54 129.496 19.642 129.064 19.846C128.632 20.038 128.26 20.32 127.948 20.692C127.636 21.064 127.39 21.52 127.21 22.06C127.042 22.588 126.958 23.188 126.958 23.86C126.958 24.532 127.042 25.138 127.21 25.678C127.39 26.206 127.636 26.656 127.948 27.028C128.26 27.4 128.632 27.688 129.064 27.892C129.496 28.084 129.97 28.18 130.486 28.18C131.206 28.18 131.872 28.012 132.484 27.676C133.096 27.328 133.588 26.83 133.96 26.182C134.332 25.534 134.518 24.76 134.518 23.86ZM132.502 23.86C132.502 24.412 132.388 24.886 132.16 25.282C131.932 25.666 131.632 25.966 131.26 26.182C130.888 26.386 130.474 26.488 130.018 26.488C129.742 26.488 129.46 26.434 129.172 26.326C128.896 26.206 128.644 26.038 128.416 25.822C128.188 25.594 128.002 25.318 127.858 24.994C127.726 24.658 127.66 24.28 127.66 23.86C127.66 23.44 127.726 23.068 127.858 22.744C128.002 22.408 128.188 22.132 128.416 21.916C128.644 21.688 128.896 21.52 129.172 21.412C129.46 21.292 129.742 21.232 130.018 21.232C130.474 21.232 130.888 21.34 131.26 21.556C131.632 21.76 131.932 22.06 132.16 22.456C132.388 22.84 132.502 23.308 132.502 23.86ZM136.082 23.86C136.082 24.7 136.274 25.45 136.658 26.11C137.054 26.758 137.588 27.268 138.26 27.64C138.944 28 139.706 28.18 140.546 28.18C141.398 28.18 142.16 28 142.832 27.64C143.504 27.268 144.032 26.758 144.416 26.11C144.812 25.45 145.01 24.7 145.01 23.86C145.01 23.008 144.812 22.258 144.416 21.61C144.032 20.962 143.504 20.458 142.832 20.098C142.16 19.726 141.398 19.54 140.546 19.54C139.706 19.54 138.944 19.726 138.26 20.098C137.588 20.458 137.054 20.962 136.658 21.61C136.274 22.258 136.082 23.008 136.082 23.86ZM138.08 23.86C138.08 23.344 138.188 22.894 138.404 22.51C138.62 22.114 138.914 21.808 139.286 21.592C139.658 21.364 140.078 21.25 140.546 21.25C141.014 21.25 141.434 21.364 141.806 21.592C142.178 21.808 142.472 22.114 142.688 22.51C142.904 22.894 143.012 23.344 143.012 23.86C143.012 24.376 142.904 24.832 142.688 25.228C142.472 25.612 142.178 25.918 141.806 26.146C141.434 26.362 141.014 26.47 140.546 26.47C140.078 26.47 139.658 26.362 139.286 26.146C138.914 25.918 138.62 25.612 138.404 25.228C138.188 24.832 138.08 24.376 138.08 23.86ZM146.062 19.72V21.43H150.76V19.72H146.062ZM147.448 16.84V28H149.374V16.84H147.448Z" fill="white"/>
</g>
<defs>
<clipPath id="clip0">
<rect width="168" height="40" fill="white"/>
</clipPath>
</defs>
</svg>
