<svg width="168" height="40" viewBox="0 0 168 40" fill="none" xmlns="http://www.w3.org/2000/svg">
<path fill-rule="evenodd" clip-rule="evenodd" d="M33.75 26.071C34.4766 24.1871 34.875 22.1401 34.875 20C34.875 17.8599 34.4766 15.8129 33.75 13.929V12.6875C33.75 8.0276 29.9724 4.25 25.3125 4.25H24.071C22.1871 3.52337 20.1401 3.125 18 3.125C15.8599 3.125 13.8129 3.52337 11.929 4.25H10.6875C6.0276 4.25 2.25 8.0276 2.25 12.6875V13.929C1.52337 15.8129 1.125 17.8599 1.125 20C1.125 22.1401 1.52337 24.1871 2.25 26.071V27.3125C2.25 31.9724 6.0276 35.75 10.6875 35.75H11.929C13.8129 36.4766 15.8599 36.875 18 36.875C20.1401 36.875 22.1871 36.4766 24.071 35.75H25.3125C29.9724 35.75 33.75 31.9724 33.75 27.3125V26.071Z" fill="url(#paint0_radial)"/>
<mask id="path-2-inside-1" fill="white">
<path d="M16.3359 28.1711C16.4675 28.3025 16.5992 28.4343 16.7328 28.5656C16.9717 28.8009 17.2164 29.0359 17.4665 29.2697C17.906 29.6857 18.3584 30.0888 18.8217 30.4782C19.7843 31.2867 18.593 32.6003 17.5208 31.6657C16.8527 31.0833 16.1815 30.4598 15.5151 29.8041C15.4002 29.6917 15.2857 29.5778 15.1717 29.4634C14.1132 28.4005 15.3493 27.1842 16.3359 28.1711ZM20.9489 28.0906C21.024 28.1577 21.0993 28.2244 21.1744 28.2905C22.1513 29.1443 20.9136 30.239 20.0578 29.5271C19.9397 29.4283 19.8159 29.336 19.6974 29.2384C18.9146 28.5964 20.0318 27.2707 20.9489 28.0906ZM18.0922 10.4375C19.7471 10.4375 21.4018 10.6714 23.004 11.1393C22.6384 14.9084 21.4668 18.4396 19.1633 21.4916C19.5138 21.922 19.8876 22.3557 20.2843 22.7928C20.9491 21.9525 21.5983 21.0424 22.1734 20.0883C22.8044 19.0412 23.3368 17.9417 23.727 16.7829C23.8544 16.3893 23.9701 15.969 24.0739 15.5301C24.2985 14.5756 26.0597 14.8302 25.672 16.2777C25.5965 16.5599 25.524 16.842 25.4393 17.1194C25.0316 18.4531 24.4039 19.757 23.6632 20.9866C23.0078 22.0737 22.2583 23.1107 21.4913 24.062C21.8666 24.417 22.2284 24.7595 22.6217 25.1007C23.2294 24.3505 23.8201 23.558 24.3678 22.7315C25.1121 21.6085 26.5006 22.6466 25.8518 23.6315C24.9413 25.0125 23.9205 26.3006 22.895 27.4596C19.97 25.0574 17.0863 22.0643 15.224 18.76C14.6905 18.9381 14.1639 19.1697 13.6437 19.4543C13.762 19.6671 13.8846 19.8784 14.0109 20.0883C14.5882 21.0452 15.2394 21.9583 15.9066 22.8008H15.9024C16.7841 23.901 17.7299 24.9493 18.7162 25.9564C18.7797 26.0207 18.8427 26.0856 18.9064 26.1493C19.732 26.9752 18.535 28.2515 17.6403 27.323C17.578 27.2579 17.5176 27.1946 17.4595 27.1325C17.2114 26.8833 16.9707 26.6357 16.7384 26.3907C15.1643 24.7317 13.7037 22.9478 12.5211 20.9864C12.4058 20.7948 12.2932 20.6017 12.1837 20.4068C11.7538 20.6843 11.3319 20.9741 10.9188 21.2754C11.2928 21.9329 11.7009 22.5745 12.1307 23.1955C13.0314 24.4963 11.5341 25.3687 10.7818 24.2926C10.0551 23.2531 9.39789 22.1683 8.82427 21.037C12.0915 18.3099 15.5447 16.3069 19.9016 16.9842C20.0993 16.5391 20.2687 16.098 20.41 15.6613C18.3456 15.275 16.1906 15.4133 14.1935 16.0658C13.1765 16.3981 12.2012 16.9097 11.2436 17.4632C10.2574 18.0325 9.48969 16.4694 10.5812 15.8386C11.606 15.2467 12.6621 14.7178 13.9002 14.3358C15.2654 13.9149 16.6795 13.7041 18.0918 13.7041C19.0045 13.7041 19.9178 13.7921 20.8183 13.968C20.9221 13.4725 21.0144 12.972 21.0945 12.4673C20.1035 12.2755 19.0981 12.1795 18.0922 12.1795C17.9419 12.1795 17.7915 12.1819 17.6411 12.1862C15.7777 12.2387 15.9891 10.4513 17.4002 10.4513C17.6311 10.4513 17.8616 10.4375 18.0922 10.4375ZM14.0077 25.6389C14.1275 25.7801 14.2472 25.9206 14.3674 26.0586C15.094 26.8941 13.7646 28.0097 13.0387 27.174C12.91 27.0236 12.7805 26.8738 12.6529 26.7224C11.8802 25.8034 13.2334 24.7205 14.0077 25.6389ZM27.5839 20.5779C27.4826 20.7922 27.3778 21.0048 27.2693 21.2163C26.6988 22.3297 25.1966 21.4571 25.725 20.4267C25.8444 20.1945 25.9589 19.9603 26.0681 19.7246C26.5058 18.7823 28.0863 19.514 27.5839 20.5779ZM9.22235 18.8464C9.06596 18.9647 8.91037 19.0841 8.75679 19.2039C7.88373 19.884 6.97864 18.3354 7.93419 17.638C8.12803 17.4964 8.32026 17.3572 8.51091 17.2202C9.29764 16.6559 10.23 18.0868 9.22235 18.8464ZM29.1746 14.8723C29.1011 15.9195 28.8981 16.9566 28.5929 17.9732C28.3092 18.9191 26.6309 18.5629 27.007 17.2074C27.0334 17.1118 27.0591 17.0159 27.0833 16.9203C27.2965 16.0848 27.4679 15.1559 27.5937 14.2691C27.7088 13.4577 29.2801 13.3763 29.1746 14.8723ZM11.5235 13.6107C11.4679 13.6362 11.4124 13.6622 11.3573 13.6882C10.119 14.2733 9.13424 14.9546 8.09118 15.7108C7.03551 16.4758 6.25877 14.8857 7.34308 14.1271C8.50308 13.2235 9.749 12.4861 11.0491 11.9146C11.9663 11.5117 12.6855 13.0773 11.5235 13.6107ZM26.2805 12.8654C26.2455 13.1336 26.2323 13.2357 26.193 13.5054C26.0639 14.3905 24.3694 14.2369 24.5182 12.972C24.5512 12.6872 24.5592 12.5898 24.5837 12.3037C24.6616 11.3902 26.4501 11.5671 26.2805 12.8654ZM14.7917 12.5302C14.5187 12.5898 14.2462 12.6567 13.9757 12.731C12.9603 13.0092 12.4679 11.3313 13.5798 11.0335C13.8585 10.9589 14.1389 10.8894 14.4202 10.8282C15.3994 10.6149 15.8377 12.3026 14.7917 12.5302Z"/>
</mask>
<path d="M16.3359 28.1711C16.4675 28.3025 16.5992 28.4343 16.7328 28.5656C16.9717 28.8009 17.2164 29.0359 17.4665 29.2697C17.906 29.6857 18.3584 30.0888 18.8217 30.4782C19.7843 31.2867 18.593 32.6003 17.5208 31.6657C16.8527 31.0833 16.1815 30.4598 15.5151 29.8041C15.4002 29.6917 15.2857 29.5778 15.1717 29.4634C14.1132 28.4005 15.3493 27.1842 16.3359 28.1711ZM20.9489 28.0906C21.024 28.1577 21.0993 28.2244 21.1744 28.2905C22.1513 29.1443 20.9136 30.239 20.0578 29.5271C19.9397 29.4283 19.8159 29.336 19.6974 29.2384C18.9146 28.5964 20.0318 27.2707 20.9489 28.0906ZM18.0922 10.4375C19.7471 10.4375 21.4018 10.6714 23.004 11.1393C22.6384 14.9084 21.4668 18.4396 19.1633 21.4916C19.5138 21.922 19.8876 22.3557 20.2843 22.7928C20.9491 21.9525 21.5983 21.0424 22.1734 20.0883C22.8044 19.0412 23.3368 17.9417 23.727 16.7829C23.8544 16.3893 23.9701 15.969 24.0739 15.5301C24.2985 14.5756 26.0597 14.8302 25.672 16.2777C25.5965 16.5599 25.524 16.842 25.4393 17.1194C25.0316 18.4531 24.4039 19.757 23.6632 20.9866C23.0078 22.0737 22.2583 23.1107 21.4913 24.062C21.8666 24.417 22.2284 24.7595 22.6217 25.1007C23.2294 24.3505 23.8201 23.558 24.3678 22.7315C25.1121 21.6085 26.5006 22.6466 25.8518 23.6315C24.9413 25.0125 23.9205 26.3006 22.895 27.4596C19.97 25.0574 17.0863 22.0643 15.224 18.76C14.6905 18.9381 14.1639 19.1697 13.6437 19.4543C13.762 19.6671 13.8846 19.8784 14.0109 20.0883C14.5882 21.0452 15.2394 21.9583 15.9066 22.8008H15.9024C16.7841 23.901 17.7299 24.9493 18.7162 25.9564C18.7797 26.0207 18.8427 26.0856 18.9064 26.1493C19.732 26.9752 18.535 28.2515 17.6403 27.323C17.578 27.2579 17.5176 27.1946 17.4595 27.1325C17.2114 26.8833 16.9707 26.6357 16.7384 26.3907C15.1643 24.7317 13.7037 22.9478 12.5211 20.9864C12.4058 20.7948 12.2932 20.6017 12.1837 20.4068C11.7538 20.6843 11.3319 20.9741 10.9188 21.2754C11.2928 21.9329 11.7009 22.5745 12.1307 23.1955C13.0314 24.4963 11.5341 25.3687 10.7818 24.2926C10.0551 23.2531 9.39789 22.1683 8.82427 21.037C12.0915 18.3099 15.5447 16.3069 19.9016 16.9842C20.0993 16.5391 20.2687 16.098 20.41 15.6613C18.3456 15.275 16.1906 15.4133 14.1935 16.0658C13.1765 16.3981 12.2012 16.9097 11.2436 17.4632C10.2574 18.0325 9.48969 16.4694 10.5812 15.8386C11.606 15.2467 12.6621 14.7178 13.9002 14.3358C15.2654 13.9149 16.6795 13.7041 18.0918 13.7041C19.0045 13.7041 19.9178 13.7921 20.8183 13.968C20.9221 13.4725 21.0144 12.972 21.0945 12.4673C20.1035 12.2755 19.0981 12.1795 18.0922 12.1795C17.9419 12.1795 17.7915 12.1819 17.6411 12.1862C15.7777 12.2387 15.9891 10.4513 17.4002 10.4513C17.6311 10.4513 17.8616 10.4375 18.0922 10.4375ZM14.0077 25.6389C14.1275 25.7801 14.2472 25.9206 14.3674 26.0586C15.094 26.8941 13.7646 28.0097 13.0387 27.174C12.91 27.0236 12.7805 26.8738 12.6529 26.7224C11.8802 25.8034 13.2334 24.7205 14.0077 25.6389ZM27.5839 20.5779C27.4826 20.7922 27.3778 21.0048 27.2693 21.2163C26.6988 22.3297 25.1966 21.4571 25.725 20.4267C25.8444 20.1945 25.9589 19.9603 26.0681 19.7246C26.5058 18.7823 28.0863 19.514 27.5839 20.5779ZM9.22235 18.8464C9.06596 18.9647 8.91037 19.0841 8.75679 19.2039C7.88373 19.884 6.97864 18.3354 7.93419 17.638C8.12803 17.4964 8.32026 17.3572 8.51091 17.2202C9.29764 16.6559 10.23 18.0868 9.22235 18.8464ZM29.1746 14.8723C29.1011 15.9195 28.8981 16.9566 28.5929 17.9732C28.3092 18.9191 26.6309 18.5629 27.007 17.2074C27.0334 17.1118 27.0591 17.0159 27.0833 16.9203C27.2965 16.0848 27.4679 15.1559 27.5937 14.2691C27.7088 13.4577 29.2801 13.3763 29.1746 14.8723ZM11.5235 13.6107C11.4679 13.6362 11.4124 13.6622 11.3573 13.6882C10.119 14.2733 9.13424 14.9546 8.09118 15.7108C7.03551 16.4758 6.25877 14.8857 7.34308 14.1271C8.50308 13.2235 9.749 12.4861 11.0491 11.9146C11.9663 11.5117 12.6855 13.0773 11.5235 13.6107ZM26.2805 12.8654C26.2455 13.1336 26.2323 13.2357 26.193 13.5054C26.0639 14.3905 24.3694 14.2369 24.5182 12.972C24.5512 12.6872 24.5592 12.5898 24.5837 12.3037C24.6616 11.3902 26.4501 11.5671 26.2805 12.8654ZM14.7917 12.5302C14.5187 12.5898 14.2462 12.6567 13.9757 12.731C12.9603 13.0092 12.4679 11.3313 13.5798 11.0335C13.8585 10.9589 14.1389 10.8894 14.4202 10.8282C15.3994 10.6149 15.8377 12.3026 14.7917 12.5302Z" fill="url(#paint1_radial)"/>
<path d="M16.3359 28.1711C16.4675 28.3025 16.5992 28.4343 16.7328 28.5656C16.9717 28.8009 17.2164 29.0359 17.4665 29.2697C17.906 29.6857 18.3584 30.0888 18.8217 30.4782C19.7843 31.2867 18.593 32.6003 17.5208 31.6657C16.8527 31.0833 16.1815 30.4598 15.5151 29.8041C15.4002 29.6917 15.2857 29.5778 15.1717 29.4634C14.1132 28.4005 15.3493 27.1842 16.3359 28.1711ZM20.9489 28.0906C21.024 28.1577 21.0993 28.2244 21.1744 28.2905C22.1513 29.1443 20.9136 30.239 20.0578 29.5271C19.9397 29.4283 19.8159 29.336 19.6974 29.2384C18.9146 28.5964 20.0318 27.2707 20.9489 28.0906ZM18.0922 10.4375C19.7471 10.4375 21.4018 10.6714 23.004 11.1393C22.6384 14.9084 21.4668 18.4396 19.1633 21.4916C19.5138 21.922 19.8876 22.3557 20.2843 22.7928C20.9491 21.9525 21.5983 21.0424 22.1734 20.0883C22.8044 19.0412 23.3368 17.9417 23.727 16.7829C23.8544 16.3893 23.9701 15.969 24.0739 15.5301C24.2985 14.5756 26.0597 14.8302 25.672 16.2777C25.5965 16.5599 25.524 16.842 25.4393 17.1194C25.0316 18.4531 24.4039 19.757 23.6632 20.9866C23.0078 22.0737 22.2583 23.1107 21.4913 24.062C21.8666 24.417 22.2284 24.7595 22.6217 25.1007C23.2294 24.3505 23.8201 23.558 24.3678 22.7315C25.1121 21.6085 26.5006 22.6466 25.8518 23.6315C24.9413 25.0125 23.9205 26.3006 22.895 27.4596C19.97 25.0574 17.0863 22.0643 15.224 18.76C14.6905 18.9381 14.1639 19.1697 13.6437 19.4543C13.762 19.6671 13.8846 19.8784 14.0109 20.0883C14.5882 21.0452 15.2394 21.9583 15.9066 22.8008H15.9024C16.7841 23.901 17.7299 24.9493 18.7162 25.9564C18.7797 26.0207 18.8427 26.0856 18.9064 26.1493C19.732 26.9752 18.535 28.2515 17.6403 27.323C17.578 27.2579 17.5176 27.1946 17.4595 27.1325C17.2114 26.8833 16.9707 26.6357 16.7384 26.3907C15.1643 24.7317 13.7037 22.9478 12.5211 20.9864C12.4058 20.7948 12.2932 20.6017 12.1837 20.4068C11.7538 20.6843 11.3319 20.9741 10.9188 21.2754C11.2928 21.9329 11.7009 22.5745 12.1307 23.1955C13.0314 24.4963 11.5341 25.3687 10.7818 24.2926C10.0551 23.2531 9.39789 22.1683 8.82427 21.037C12.0915 18.3099 15.5447 16.3069 19.9016 16.9842C20.0993 16.5391 20.2687 16.098 20.41 15.6613C18.3456 15.275 16.1906 15.4133 14.1935 16.0658C13.1765 16.3981 12.2012 16.9097 11.2436 17.4632C10.2574 18.0325 9.48969 16.4694 10.5812 15.8386C11.606 15.2467 12.6621 14.7178 13.9002 14.3358C15.2654 13.9149 16.6795 13.7041 18.0918 13.7041C19.0045 13.7041 19.9178 13.7921 20.8183 13.968C20.9221 13.4725 21.0144 12.972 21.0945 12.4673C20.1035 12.2755 19.0981 12.1795 18.0922 12.1795C17.9419 12.1795 17.7915 12.1819 17.6411 12.1862C15.7777 12.2387 15.9891 10.4513 17.4002 10.4513C17.6311 10.4513 17.8616 10.4375 18.0922 10.4375ZM14.0077 25.6389C14.1275 25.7801 14.2472 25.9206 14.3674 26.0586C15.094 26.8941 13.7646 28.0097 13.0387 27.174C12.91 27.0236 12.7805 26.8738 12.6529 26.7224C11.8802 25.8034 13.2334 24.7205 14.0077 25.6389ZM27.5839 20.5779C27.4826 20.7922 27.3778 21.0048 27.2693 21.2163C26.6988 22.3297 25.1966 21.4571 25.725 20.4267C25.8444 20.1945 25.9589 19.9603 26.0681 19.7246C26.5058 18.7823 28.0863 19.514 27.5839 20.5779ZM9.22235 18.8464C9.06596 18.9647 8.91037 19.0841 8.75679 19.2039C7.88373 19.884 6.97864 18.3354 7.93419 17.638C8.12803 17.4964 8.32026 17.3572 8.51091 17.2202C9.29764 16.6559 10.23 18.0868 9.22235 18.8464ZM29.1746 14.8723C29.1011 15.9195 28.8981 16.9566 28.5929 17.9732C28.3092 18.9191 26.6309 18.5629 27.007 17.2074C27.0334 17.1118 27.0591 17.0159 27.0833 16.9203C27.2965 16.0848 27.4679 15.1559 27.5937 14.2691C27.7088 13.4577 29.2801 13.3763 29.1746 14.8723ZM11.5235 13.6107C11.4679 13.6362 11.4124 13.6622 11.3573 13.6882C10.119 14.2733 9.13424 14.9546 8.09118 15.7108C7.03551 16.4758 6.25877 14.8857 7.34308 14.1271C8.50308 13.2235 9.749 12.4861 11.0491 11.9146C11.9663 11.5117 12.6855 13.0773 11.5235 13.6107ZM26.2805 12.8654C26.2455 13.1336 26.2323 13.2357 26.193 13.5054C26.0639 14.3905 24.3694 14.2369 24.5182 12.972C24.5512 12.6872 24.5592 12.5898 24.5837 12.3037C24.6616 11.3902 26.4501 11.5671 26.2805 12.8654ZM14.7917 12.5302C14.5187 12.5898 14.2462 12.6567 13.9757 12.731C12.9603 13.0092 12.4679 11.3313 13.5798 11.0335C13.8585 10.9589 14.1389 10.8894 14.4202 10.8282C15.3994 10.6149 15.8377 12.3026 14.7917 12.5302Z" stroke="#F8E1C5" stroke-width="8" style="mix-blend-mode:lighten" mask="url(#path-2-inside-1)"/>
<path d="M47.036 28C46.6107 28 46.2733 27.8827 46.024 27.648C45.7893 27.4133 45.672 27.0833 45.672 26.658V13.832C45.672 13.4067 45.7893 13.0767 46.024 12.842C46.2733 12.6073 46.6107 12.49 47.036 12.49H51.392C53.9293 12.49 55.8947 13.172 57.288 14.536C58.696 15.8853 59.4 17.7847 59.4 20.234C59.4 22.698 58.696 24.612 57.288 25.976C55.8947 27.3253 53.9293 28 51.392 28H47.036ZM51.216 25.69C54.78 25.69 56.562 23.8713 56.562 20.234C56.562 16.6113 54.78 14.8 51.216 14.8H48.51V25.69H51.216ZM70.7499 25.052C70.9993 25.052 71.1973 25.1473 71.3439 25.338C71.5053 25.5287 71.5859 25.7853 71.5859 26.108C71.5859 26.5627 71.3146 26.944 70.7719 27.252C70.2733 27.5307 69.7086 27.758 69.0779 27.934C68.4473 28.0953 67.8459 28.176 67.2739 28.176C65.5433 28.176 64.1719 27.6773 63.1599 26.68C62.1479 25.6827 61.6419 24.3187 61.6419 22.588C61.6419 21.488 61.8619 20.5127 62.3019 19.662C62.7419 18.8113 63.3579 18.1513 64.1499 17.682C64.9566 17.2127 65.8659 16.978 66.8779 16.978C67.8459 16.978 68.6893 17.1907 69.4079 17.616C70.1266 18.0413 70.6839 18.6427 71.0799 19.42C71.4759 20.1973 71.6739 21.114 71.6739 22.17C71.6739 22.8007 71.3953 23.116 70.8379 23.116H64.3479C64.4359 24.128 64.7219 24.876 65.2059 25.36C65.6899 25.8293 66.3939 26.064 67.3179 26.064C67.7873 26.064 68.1979 26.0053 68.5499 25.888C68.9166 25.7707 69.3273 25.6093 69.7819 25.404C70.2219 25.1693 70.5446 25.052 70.7499 25.052ZM66.9439 18.914C66.1959 18.914 65.5946 19.1487 65.1399 19.618C64.6999 20.0873 64.4359 20.762 64.3479 21.642H69.3199C69.2906 20.7473 69.0706 20.0727 68.6599 19.618C68.2493 19.1487 67.6773 18.914 66.9439 18.914ZM79.513 14.536C78.8383 14.58 78.347 14.7853 78.039 15.152C77.731 15.5187 77.577 16.0467 77.577 16.736V17.242H79.447C80.2683 17.242 80.679 17.5867 80.679 18.276C80.679 18.9653 80.2683 19.31 79.447 19.31H77.577V26.812C77.577 27.2373 77.445 27.56 77.181 27.78C76.9317 28 76.609 28.11 76.213 28.11C75.817 28.11 75.487 28 75.223 27.78C74.959 27.56 74.827 27.2373 74.827 26.812V19.31H73.727C72.9057 19.31 72.495 18.9653 72.495 18.276C72.495 17.5867 72.9057 17.242 73.727 17.242H74.827V17.088C74.827 15.7093 75.1863 14.6313 75.905 13.854C76.6383 13.062 77.665 12.6147 78.985 12.512L79.557 12.468C80.1437 12.424 80.5543 12.49 80.789 12.666C81.0383 12.8273 81.163 13.084 81.163 13.436C81.163 14.0667 80.8037 14.4187 80.085 14.492L79.513 14.536ZM90.5903 25.052C90.8397 25.052 91.0377 25.1473 91.1843 25.338C91.3457 25.5287 91.4263 25.7853 91.4263 26.108C91.4263 26.5627 91.155 26.944 90.6123 27.252C90.1137 27.5307 89.549 27.758 88.9183 27.934C88.2877 28.0953 87.6863 28.176 87.1143 28.176C85.3837 28.176 84.0123 27.6773 83.0003 26.68C81.9883 25.6827 81.4823 24.3187 81.4823 22.588C81.4823 21.488 81.7023 20.5127 82.1423 19.662C82.5823 18.8113 83.1983 18.1513 83.9903 17.682C84.797 17.2127 85.7063 16.978 86.7183 16.978C87.6863 16.978 88.5297 17.1907 89.2483 17.616C89.967 18.0413 90.5243 18.6427 90.9203 19.42C91.3163 20.1973 91.5143 21.114 91.5143 22.17C91.5143 22.8007 91.2357 23.116 90.6783 23.116H84.1883C84.2763 24.128 84.5623 24.876 85.0463 25.36C85.5303 25.8293 86.2343 26.064 87.1583 26.064C87.6277 26.064 88.0383 26.0053 88.3903 25.888C88.757 25.7707 89.1677 25.6093 89.6223 25.404C90.0623 25.1693 90.385 25.052 90.5903 25.052ZM86.7843 18.914C86.0363 18.914 85.435 19.1487 84.9803 19.618C84.5403 20.0873 84.2763 20.762 84.1883 21.642H89.1603C89.131 20.7473 88.911 20.0727 88.5003 19.618C88.0897 19.1487 87.5177 18.914 86.7843 18.914ZM100.232 16.978C101.522 16.978 102.483 17.3447 103.114 18.078C103.744 18.8113 104.06 19.9187 104.06 21.4V26.812C104.06 27.2227 103.935 27.5453 103.686 27.78C103.451 28.0147 103.121 28.132 102.696 28.132C102.27 28.132 101.933 28.0147 101.684 27.78C101.434 27.5453 101.31 27.2227 101.31 26.812V21.554C101.31 20.718 101.148 20.1093 100.826 19.728C100.518 19.3467 100.026 19.156 99.3518 19.156C98.5598 19.156 97.9218 19.4053 97.4378 19.904C96.9685 20.4027 96.7338 21.07 96.7338 21.906V26.812C96.7338 27.2227 96.6092 27.5453 96.3598 27.78C96.1105 28.0147 95.7732 28.132 95.3478 28.132C94.9225 28.132 94.5852 28.0147 94.3358 27.78C94.1012 27.5453 93.9838 27.2227 93.9838 26.812V18.298C93.9838 17.9167 94.1085 17.6087 94.3578 17.374C94.6072 17.1393 94.9445 17.022 95.3698 17.022C95.7512 17.022 96.0592 17.1393 96.2938 17.374C96.5432 17.594 96.6678 17.8873 96.6678 18.254V18.848C97.0345 18.2467 97.5258 17.7847 98.1418 17.462C98.7578 17.1393 99.4545 16.978 100.232 16.978ZM116.049 12.38C116.46 12.38 116.797 12.4973 117.061 12.732C117.325 12.9667 117.457 13.2747 117.457 13.656V26.812C117.457 27.208 117.332 27.5233 117.083 27.758C116.834 27.9927 116.504 28.11 116.093 28.11C115.682 28.11 115.352 27.9927 115.103 27.758C114.854 27.5233 114.729 27.208 114.729 26.812V26.262C114.406 26.8633 113.937 27.3327 113.321 27.67C112.72 28.0073 112.03 28.176 111.253 28.176C110.329 28.176 109.5 27.9413 108.767 27.472C108.048 27.0027 107.484 26.3427 107.073 25.492C106.677 24.6267 106.479 23.6367 106.479 22.522C106.479 21.4073 106.677 20.432 107.073 19.596C107.484 18.76 108.048 18.1147 108.767 17.66C109.486 17.2053 110.314 16.978 111.253 16.978C112.03 16.978 112.72 17.1393 113.321 17.462C113.922 17.7847 114.384 18.2393 114.707 18.826V13.612C114.707 13.2453 114.824 12.952 115.059 12.732C115.308 12.4973 115.638 12.38 116.049 12.38ZM111.979 26.042C112.859 26.042 113.534 25.7413 114.003 25.14C114.487 24.5387 114.729 23.6807 114.729 22.566C114.729 21.4513 114.487 20.6007 114.003 20.014C113.534 19.4127 112.866 19.112 112.001 19.112C111.121 19.112 110.439 19.4053 109.955 19.992C109.471 20.5787 109.229 21.422 109.229 22.522C109.229 23.6367 109.471 24.502 109.955 25.118C110.439 25.734 111.114 26.042 111.979 26.042ZM125.17 16.978C126.666 16.978 127.773 17.352 128.492 18.1C129.225 18.8333 129.592 19.9553 129.592 21.466V26.834C129.592 27.23 129.475 27.5453 129.24 27.78C129.005 28 128.683 28.11 128.272 28.11C127.891 28.11 127.575 27.9927 127.326 27.758C127.091 27.5233 126.974 27.2153 126.974 26.834V26.35C126.725 26.922 126.329 27.3693 125.786 27.692C125.258 28.0147 124.642 28.176 123.938 28.176C123.219 28.176 122.567 28.0293 121.98 27.736C121.393 27.4427 120.931 27.0393 120.594 26.526C120.257 26.0127 120.088 25.4407 120.088 24.81C120.088 24.018 120.286 23.3947 120.682 22.94C121.093 22.4853 121.753 22.1553 122.662 21.95C123.571 21.7447 124.825 21.642 126.424 21.642H126.974V21.136C126.974 20.4173 126.82 19.8967 126.512 19.574C126.204 19.2367 125.705 19.068 125.016 19.068C124.591 19.068 124.158 19.134 123.718 19.266C123.278 19.3833 122.757 19.5593 122.156 19.794C121.775 19.9847 121.496 20.08 121.32 20.08C121.056 20.08 120.836 19.9847 120.66 19.794C120.499 19.6033 120.418 19.354 120.418 19.046C120.418 18.7967 120.477 18.584 120.594 18.408C120.726 18.2173 120.939 18.0413 121.232 17.88C121.745 17.6013 122.354 17.3813 123.058 17.22C123.777 17.0587 124.481 16.978 125.17 16.978ZM124.488 26.196C125.221 26.196 125.815 25.954 126.27 25.47C126.739 24.9713 126.974 24.3333 126.974 23.556V23.094H126.578C125.595 23.094 124.833 23.138 124.29 23.226C123.747 23.314 123.359 23.468 123.124 23.688C122.889 23.908 122.772 24.2087 122.772 24.59C122.772 25.0593 122.933 25.448 123.256 25.756C123.593 26.0493 124.004 26.196 124.488 26.196ZM138.789 16.978C139.727 16.978 140.556 17.2053 141.275 17.66C141.993 18.1147 142.551 18.76 142.947 19.596C143.357 20.432 143.563 21.4073 143.563 22.522C143.563 23.6367 143.357 24.6267 142.947 25.492C142.551 26.3427 141.986 27.0027 141.253 27.472C140.534 27.9413 139.713 28.176 138.789 28.176C138.011 28.176 137.315 28.0073 136.699 27.67C136.097 27.3327 135.635 26.8633 135.313 26.262V26.812C135.313 27.208 135.188 27.5233 134.939 27.758C134.689 27.9927 134.359 28.11 133.949 28.11C133.538 28.11 133.208 27.9927 132.959 27.758C132.724 27.5233 132.607 27.208 132.607 26.812V13.656C132.607 13.2747 132.731 12.9667 132.981 12.732C133.245 12.4973 133.582 12.38 133.993 12.38C134.403 12.38 134.733 12.49 134.983 12.71C135.232 12.93 135.357 13.2307 135.357 13.612V18.804C135.679 18.2173 136.141 17.77 136.743 17.462C137.344 17.1393 138.026 16.978 138.789 16.978ZM138.063 26.042C138.928 26.042 139.603 25.734 140.087 25.118C140.571 24.502 140.813 23.6367 140.813 22.522C140.813 21.422 140.571 20.5787 140.087 19.992C139.617 19.4053 138.943 19.112 138.063 19.112C137.183 19.112 136.501 19.4127 136.017 20.014C135.547 20.6007 135.313 21.4513 135.313 22.566C135.313 23.6807 135.547 24.5387 136.017 25.14C136.501 25.7413 137.183 26.042 138.063 26.042ZM150.946 28.176C149.846 28.176 148.878 27.9487 148.042 27.494C147.22 27.0393 146.582 26.3867 146.128 25.536C145.673 24.6853 145.446 23.6953 145.446 22.566C145.446 21.4367 145.673 20.454 146.128 19.618C146.582 18.7673 147.22 18.1147 148.042 17.66C148.878 17.2053 149.846 16.978 150.946 16.978C152.046 16.978 153.006 17.2053 153.828 17.66C154.664 18.1147 155.302 18.7673 155.742 19.618C156.196 20.454 156.424 21.4367 156.424 22.566C156.424 23.6953 156.196 24.6853 155.742 25.536C155.302 26.3867 154.664 27.0393 153.828 27.494C153.006 27.9487 152.046 28.176 150.946 28.176ZM150.924 26.042C151.818 26.042 152.5 25.7487 152.97 25.162C153.439 24.5753 153.674 23.71 153.674 22.566C153.674 21.4367 153.439 20.5787 152.97 19.992C152.5 19.3907 151.826 19.09 150.946 19.09C150.066 19.09 149.384 19.3907 148.9 19.992C148.43 20.5787 148.196 21.4367 148.196 22.566C148.196 23.71 148.43 24.5753 148.9 25.162C149.369 25.7487 150.044 26.042 150.924 26.042ZM164.437 26.086C165.171 26.13 165.537 26.46 165.537 27.076C165.537 27.428 165.391 27.6993 165.097 27.89C164.819 28.066 164.415 28.1393 163.887 28.11L163.293 28.066C160.829 27.89 159.597 26.57 159.597 24.106V19.31H158.497C158.101 19.31 157.793 19.222 157.573 19.046C157.368 18.87 157.265 18.6133 157.265 18.276C157.265 17.9387 157.368 17.682 157.573 17.506C157.793 17.33 158.101 17.242 158.497 17.242H159.597V15.218C159.597 14.822 159.722 14.5067 159.971 14.272C160.221 14.0373 160.558 13.92 160.983 13.92C161.394 13.92 161.724 14.0373 161.973 14.272C162.223 14.5067 162.347 14.822 162.347 15.218V17.242H164.217C164.613 17.242 164.914 17.33 165.119 17.506C165.339 17.682 165.449 17.9387 165.449 18.276C165.449 18.6133 165.339 18.87 165.119 19.046C164.914 19.222 164.613 19.31 164.217 19.31H162.347V24.304C162.347 25.3893 162.846 25.9687 163.843 26.042L164.437 26.086Z" fill="#2B2350"/>
<defs>
<radialGradient id="paint0_radial" cx="0" cy="0" r="1" gradientUnits="userSpaceOnUse" gradientTransform="translate(11.7445 8.55267) rotate(83.6715) scale(42.9231)">
<stop stop-color="#8121A3"/>
<stop offset="1" stop-color="#1B094F"/>
</radialGradient>
<radialGradient id="paint1_radial" cx="0" cy="0" r="1" gradientUnits="userSpaceOnUse" gradientTransform="translate(9.77344 12.3711) rotate(67.249) scale(21.2723 22.0704)">
<stop stop-color="#FFFFFE"/>
<stop offset="0.203125" stop-color="#F8E1C5"/>
<stop offset="0.989583" stop-color="#E89989"/>
</radialGradient>
</defs>
</svg>
