<svg width="40" height="40" viewBox="0 0 40 40" fill="none" xmlns="http://www.w3.org/2000/svg">
<g clip-path="url(#clip0)">
<path fill-rule="evenodd" clip-rule="evenodd" d="M38.375 27.0828C39.2227 24.8849 39.6875 22.4967 39.6875 20C39.6875 17.5033 39.2227 15.1151 38.375 12.9172V11.4688C38.375 6.0322 33.9678 1.625 28.5312 1.625H27.0828C24.8849 0.777266 22.4967 0.3125 20 0.3125C17.5033 0.3125 15.1151 0.777266 12.9172 1.625H11.4688C6.0322 1.625 1.625 6.0322 1.625 11.4688V12.9172C0.777266 15.1151 0.3125 17.5033 0.3125 20C0.3125 22.4967 0.777266 24.8849 1.625 27.0828V28.5312C1.625 33.9678 6.0322 38.375 11.4688 38.375H12.9172C15.1151 39.2227 17.5033 39.6875 20 39.6875C22.4967 39.6875 24.8849 39.2227 27.0828 38.375H28.5312C33.9678 38.375 38.375 33.9678 38.375 28.5312V27.0828Z" fill="url(#paint0_radial)"/>
<path d="M22.1273 30.3469C22.1222 30.3993 22.1204 30.4537 22.1226 30.5101C22.1237 30.5393 22.1257 30.5676 22.1287 30.5949C22.129 30.5952 22.1294 30.5955 22.1298 30.5958C22.1299 30.5959 22.13 30.596 22.1301 30.5961C22.1683 30.6285 22.2066 30.6608 22.245 30.6931L22.1273 30.3469ZM22.1273 30.3469C22.2549 30.2538 22.3735 30.1523 22.4819 30.0444C22.6728 29.8546 22.8401 29.6345 22.977 29.3931M22.1273 30.3469L22.977 29.3931M14.2119 28.3696C14.1702 28.3209 14.1284 28.2723 14.0867 28.2237C13.9779 28.0971 13.8692 27.9705 13.7617 27.8428C13.6421 27.7006 13.5662 27.5551 13.5265 27.412L14.9952 28.0548M14.2119 28.3696C14.3225 28.497 14.4451 28.5855 14.5728 28.6409C14.6849 28.4364 14.8251 28.2398 14.9952 28.0548M14.2119 28.3696L14.2297 28.3543L14.494 28.1711M14.2119 28.3696L14.2296 28.3542C14.0888 28.1921 13.9505 28.0297 13.8172 27.8725L13.8153 27.8703C13.8159 27.871 13.8166 27.8718 13.8172 27.8725C13.8725 27.9366 13.9594 28.008 14.0731 28.065M14.9952 28.0548C15.0098 28.0389 15.0246 28.023 15.0397 28.0073C15.1319 27.9109 15.228 27.8227 15.3274 27.7423C15.3999 27.6297 15.4583 27.4891 15.482 27.3196C15.4824 27.3168 15.4828 27.3139 15.4831 27.3111L14.4956 28.1712C14.692 28.1779 14.861 28.1285 14.9952 28.0548ZM14.0731 28.065C14.1129 28.1771 14.168 28.2754 14.2302 28.3537L14.4439 28.1681M14.0731 28.065C14.035 27.9577 14.0109 27.8378 14.0078 27.7108C14.0078 27.7086 14.0077 27.7063 14.0077 27.704C14.0072 27.6813 14.0075 27.6584 14.0085 27.6354M14.0731 28.065C14.176 28.1165 14.3008 28.1562 14.4439 28.1681M14.4439 28.1681C14.4449 28.1682 14.4459 28.1683 14.4469 28.1684M14.4439 28.1681L15.4887 27.2606M14.4469 28.1684L14.2303 28.3538C14.2377 28.3631 14.2452 28.3721 14.2528 28.3808L14.494 28.1711M14.4469 28.1684C14.4542 28.169 14.4616 28.1695 14.469 28.1699C14.4774 28.1704 14.4857 28.1708 14.494 28.1711M14.4469 28.1684L15.4871 27.2776M14.494 28.1711L15.4832 27.3108C15.4847 27.2996 15.4859 27.2886 15.4871 27.2776M15.4871 27.2776L15.6056 27.1761L14.5581 26.7854M15.4871 27.2776C15.4877 27.2719 15.4882 27.2663 15.4887 27.2606M15.4887 27.2606L15.5971 27.1664C15.5599 27.1236 15.5226 27.0807 15.4855 27.0377M15.4887 27.2606C15.4955 27.1818 15.4937 27.1072 15.4855 27.0377M15.4855 27.0377C15.4771 26.9668 15.4621 26.9012 15.4431 26.8418C15.3829 26.8101 15.3178 26.7831 15.2489 26.7622M15.4855 27.0377C15.4064 26.9462 15.3275 26.8544 15.2489 26.7622M15.2489 26.7622C15.2318 26.742 15.2146 26.7218 15.1975 26.7016C15.1973 26.7015 15.1972 26.7013 15.1971 26.7012C15.1863 26.6885 15.1755 26.6758 15.1648 26.6631L15.0895 26.7264M15.2489 26.7622C15.2182 26.7529 15.1867 26.7448 15.1546 26.738C15.1543 26.738 15.1539 26.7379 15.1536 26.7378C15.1325 26.7334 15.1112 26.7296 15.0895 26.7264M15.0895 26.7264C15.0887 26.7263 15.0879 26.7262 15.087 26.7261M15.0895 26.7264L14.0085 27.6354M15.087 26.7261L15.1635 26.6616C15.0825 26.5661 15.0019 26.4701 14.9215 26.3738C14.8135 26.5224 14.6918 26.6602 14.5581 26.7854M15.087 26.7261L14.0085 27.6349M15.087 26.7261C15.0358 26.7186 14.9832 26.7147 14.9295 26.7147C14.7828 26.7148 14.6592 26.7439 14.5581 26.7854M14.5581 26.7854C14.4546 26.8822 14.3439 26.9716 14.2269 27.0526C14.2151 27.0607 14.2033 27.0688 14.1914 27.0767C14.1181 27.1799 14.0514 27.3194 14.0221 27.5009C14.0148 27.5461 14.0103 27.5909 14.0085 27.6349M14.0085 27.6349L13.7623 27.8423L14.0085 27.6354M14.0085 27.6349C14.0085 27.6351 14.0085 27.6352 14.0085 27.6354M28.9081 12.2692C28.9315 12.2589 28.9554 12.2475 28.9797 12.2349C29.0802 12.1826 29.1911 12.1061 29.2959 11.9997C29.2967 11.9988 29.2975 11.998 29.2983 11.9972C29.347 11.9474 29.3944 11.8912 29.4387 11.8279C29.4735 11.7782 29.5041 11.7273 29.5308 11.676L28.9081 12.2692ZM28.9081 12.2692C28.8914 12.2639 28.8747 12.2588 28.8581 12.2538C28.5941 12.1751 28.294 12.1328 27.9806 12.135L28.9081 12.2692ZM29.426 20.7098L30.3147 21.1656C30.316 21.1654 30.3173 21.1652 30.3186 21.1651C30.3188 21.1651 30.3189 21.1651 30.3191 21.165C30.3588 21.1604 30.4002 21.1532 30.443 21.1432C30.6049 21.1052 30.7541 21.0328 30.8812 20.9378C30.8753 20.8462 30.8568 20.7501 30.8219 20.6535L29.426 20.7098ZM29.426 20.7098C29.4254 20.7088 29.4249 20.7078 29.4244 20.7069C29.4242 20.7065 29.424 20.7061 29.4238 20.7058C29.4069 20.6748 29.3911 20.6417 29.3764 20.6064C29.3394 20.5171 29.3166 20.4284 29.3048 20.3431L29.426 20.7098ZM22.977 29.3931C23.0262 29.3854 23.076 29.3815 23.1259 29.3815C23.1271 29.3815 23.1284 29.3815 23.1297 29.3815C23.2342 29.3819 23.3388 29.3998 23.4381 29.437C23.4388 29.4377 23.4396 29.4384 23.4404 29.439C23.4415 29.44 23.4426 29.441 23.4437 29.442C23.4987 29.5191 23.5454 29.6043 23.5819 29.695L22.5291 30.9606C22.4527 30.8798 22.3719 30.8026 22.2873 30.7292C22.2873 30.7292 22.2872 30.7291 22.2871 30.729C22.2733 30.7171 22.2594 30.7052 22.2454 30.6935L22.977 29.3931ZM18.9969 18.4046C19.7051 18.3172 20.4305 18.3026 21.1791 18.3685C20.8546 18.9452 20.4992 19.5078 20.1115 20.0556C19.7156 19.5132 19.3427 18.9624 18.9969 18.4046ZM8.71427 17.2677C8.78622 17.2688 8.86058 17.276 8.93652 17.2907C8.95556 17.3399 8.97585 17.3885 8.99736 17.4364C9.14589 17.7675 9.36351 18.0939 9.6511 18.3742C9.62923 18.3906 9.60738 18.407 9.58555 18.4235C9.58539 18.4236 9.58524 18.4237 9.58509 18.4238C9.50461 18.4844 9.42442 18.5454 9.34451 18.6067C9.31245 18.6061 9.28029 18.6044 9.24812 18.6015C9.24768 18.6015 9.24724 18.6014 9.2468 18.6014C9.13843 18.5914 9.02998 18.5678 8.92476 18.5293C8.84615 18.5006 8.77719 18.4667 8.71685 18.4301L8.29747 17.8918C8.27079 17.7864 8.26298 17.6661 8.28667 17.5352C8.29849 17.4698 8.31664 17.4103 8.3386 17.3568C8.33861 17.3568 8.33862 17.3568 8.33864 17.3567C8.34473 17.3419 8.35112 17.3275 8.35775 17.3136C8.46475 17.2838 8.58358 17.2662 8.70986 17.2677C8.71133 17.2677 8.7128 17.2677 8.71427 17.2677ZM8.29804 17.894L8.71564 18.4294C8.52341 18.3125 8.4188 18.1681 8.36792 18.0734C8.3393 18.0202 8.31496 17.96 8.29804 17.894ZM15.1227 10.8554C15.0867 10.8084 15.059 10.7624 15.0377 10.7194C15.0171 10.6434 14.9939 10.5689 14.9683 10.4961C14.9606 10.4398 14.9572 10.3687 14.9665 10.2863L15.1227 10.8554ZM15.1232 10.8561L14.9667 10.2848C14.9724 10.2351 14.9827 10.1813 14.9996 10.1241L15.2254 10.9688C15.1855 10.9312 15.1517 10.8933 15.1232 10.8561ZM15.0655 9.95463C15.1344 9.81253 15.2293 9.6912 15.3374 9.59352C15.4702 9.62832 15.5994 9.68699 15.7148 9.76955C15.8453 9.86303 15.9324 9.96712 15.99 10.0647C15.9901 10.0649 15.9902 10.0651 15.9903 10.0653L16.0324 10.2583C16.0324 10.2585 16.0324 10.2586 16.0324 10.2588C16.0474 10.3719 16.0691 10.4833 16.0973 10.5925C16.0856 10.6897 16.0569 10.7978 16.0015 10.9123C15.9579 11.0024 15.9046 11.0816 15.8459 11.1502C15.7689 11.1683 15.6919 11.1869 15.6151 11.206C15.493 11.1615 15.3804 11.0982 15.2848 11.0206C15.264 11.0037 15.2445 10.9867 15.2263 10.9696L14.9997 10.1236C15.0155 10.0701 15.0369 10.0135 15.0655 9.95463ZM16.0323 10.258L15.9904 10.0654C15.991 10.0665 15.9917 10.0675 15.9923 10.0686C16.0013 10.084 16.0096 10.0993 16.0171 10.1143C16.0206 10.1581 16.0252 10.2017 16.0307 10.245C16.0312 10.2494 16.0318 10.2537 16.0323 10.258ZM19.3744 8.87737C19.3744 8.87731 19.3762 8.87763 19.3796 8.8785C19.376 8.87786 19.3743 8.87743 19.3744 8.87737ZM15.8266 9.31338L15.8305 9.33118L15.8266 9.31338ZM13.3768 24.4018C13.1011 24.5158 12.8481 24.6673 12.6258 24.8451C12.4161 25.0129 12.2214 25.2142 12.0546 25.4448C11.8837 25.3531 11.72 25.21 11.5788 25.008L13.3768 24.4018ZM30.0687 21.1632C30.0535 21.1525 30.0382 21.142 30.0229 21.1316C29.8696 21.0282 29.7042 20.9373 29.5291 20.8618C29.4927 20.818 29.4579 20.7678 29.4264 20.7105L30.312 21.1659C30.2226 21.1758 30.1412 21.1733 30.0687 21.1632ZM22.5295 30.961L23.5839 29.6999C23.5939 29.725 23.6031 29.7507 23.6115 29.7766C23.6116 29.7768 23.6117 29.777 23.6117 29.7772C23.6558 29.9132 23.6773 30.0592 23.6707 30.2074C23.6565 30.5266 23.5216 30.737 23.4111 30.8523C23.2943 30.9743 23.0929 31.1072 22.8035 31.1321C22.7622 31.1356 22.7222 31.1367 22.6835 31.1357C22.6419 31.085 22.5988 31.0356 22.5542 30.9874C22.5527 30.9858 22.5513 30.9843 22.5498 30.9827C22.5431 30.9754 22.5363 30.9682 22.5295 30.961Z" fill="url(#paint1_radial)"/>
<path d="M22.1273 30.3469C22.1222 30.3993 22.1204 30.4537 22.1226 30.5101C22.1237 30.5393 22.1257 30.5676 22.1287 30.5949C22.129 30.5952 22.1294 30.5955 22.1298 30.5958C22.1299 30.5959 22.13 30.596 22.1301 30.5961C22.1683 30.6285 22.2066 30.6608 22.245 30.6931L22.1273 30.3469ZM22.1273 30.3469C22.2549 30.2538 22.3735 30.1523 22.4819 30.0444C22.6728 29.8546 22.8401 29.6345 22.977 29.3931M22.1273 30.3469L22.977 29.3931M14.2119 28.3696C14.1702 28.3209 14.1284 28.2723 14.0867 28.2237C13.9779 28.0971 13.8692 27.9705 13.7617 27.8428C13.6421 27.7006 13.5662 27.5551 13.5265 27.412L14.9952 28.0548M14.2119 28.3696C14.3225 28.497 14.4451 28.5855 14.5728 28.6409C14.6849 28.4364 14.8251 28.2398 14.9952 28.0548M14.2119 28.3696L14.2297 28.3543L14.494 28.1711M14.2119 28.3696L14.2296 28.3542C14.0888 28.1921 13.9505 28.0297 13.8172 27.8725L13.8153 27.8703C13.8159 27.871 13.8166 27.8718 13.8172 27.8725C13.8725 27.9366 13.9594 28.008 14.0731 28.065M14.9952 28.0548C15.0098 28.0389 15.0246 28.023 15.0397 28.0073C15.1319 27.9109 15.228 27.8227 15.3274 27.7423C15.3999 27.6297 15.4583 27.4891 15.482 27.3196C15.4824 27.3168 15.4828 27.3139 15.4831 27.3111L14.4956 28.1712C14.692 28.1779 14.861 28.1285 14.9952 28.0548ZM14.0731 28.065C14.1129 28.1771 14.168 28.2754 14.2302 28.3537L14.4439 28.1681M14.0731 28.065C14.035 27.9577 14.0109 27.8378 14.0078 27.7108C14.0078 27.7086 14.0077 27.7063 14.0077 27.704C14.0072 27.6813 14.0075 27.6584 14.0085 27.6354M14.0731 28.065C14.176 28.1165 14.3008 28.1562 14.4439 28.1681M14.4439 28.1681C14.4449 28.1682 14.4459 28.1683 14.4469 28.1684M14.4439 28.1681L15.4887 27.2606M14.4469 28.1684L14.2303 28.3538C14.2377 28.3631 14.2452 28.3721 14.2528 28.3808L14.494 28.1711M14.4469 28.1684C14.4542 28.169 14.4616 28.1695 14.469 28.1699C14.4774 28.1704 14.4857 28.1708 14.494 28.1711M14.4469 28.1684L15.4871 27.2776M14.494 28.1711L15.4832 27.3108C15.4847 27.2996 15.4859 27.2886 15.4871 27.2776M15.4871 27.2776L15.6056 27.1761L14.5581 26.7854M15.4871 27.2776C15.4877 27.2719 15.4882 27.2663 15.4887 27.2606M15.4887 27.2606L15.5971 27.1664C15.5599 27.1236 15.5226 27.0807 15.4855 27.0377M15.4887 27.2606C15.4955 27.1818 15.4937 27.1072 15.4855 27.0377M15.4855 27.0377C15.4771 26.9668 15.4621 26.9012 15.4431 26.8418C15.3829 26.8101 15.3178 26.7831 15.2489 26.7622M15.4855 27.0377C15.4064 26.9462 15.3275 26.8544 15.2489 26.7622M15.2489 26.7622C15.2318 26.742 15.2146 26.7218 15.1975 26.7016C15.1973 26.7015 15.1972 26.7013 15.1971 26.7012C15.1863 26.6885 15.1755 26.6758 15.1648 26.6631L15.0895 26.7264M15.2489 26.7622C15.2182 26.7529 15.1867 26.7448 15.1546 26.738C15.1543 26.738 15.1539 26.7379 15.1536 26.7378C15.1325 26.7334 15.1112 26.7296 15.0895 26.7264M15.0895 26.7264C15.0887 26.7263 15.0879 26.7262 15.087 26.7261M15.0895 26.7264L14.0085 27.6354M15.087 26.7261L15.1635 26.6616C15.0825 26.5661 15.0019 26.4701 14.9215 26.3738C14.8135 26.5224 14.6918 26.6602 14.5581 26.7854M15.087 26.7261L14.0085 27.6349M15.087 26.7261C15.0358 26.7186 14.9832 26.7147 14.9295 26.7147C14.7828 26.7148 14.6592 26.7439 14.5581 26.7854M14.5581 26.7854C14.4546 26.8822 14.3439 26.9716 14.2269 27.0526C14.2151 27.0607 14.2033 27.0688 14.1914 27.0767C14.1181 27.1799 14.0514 27.3194 14.0221 27.5009C14.0148 27.5461 14.0103 27.5909 14.0085 27.6349M14.0085 27.6349L13.7623 27.8423L14.0085 27.6354M14.0085 27.6349C14.0085 27.6351 14.0085 27.6352 14.0085 27.6354M28.9081 12.2692C28.9315 12.2589 28.9554 12.2475 28.9797 12.2349C29.0802 12.1826 29.1911 12.1061 29.2959 11.9997C29.2967 11.9988 29.2975 11.998 29.2983 11.9972C29.347 11.9474 29.3944 11.8912 29.4387 11.8279C29.4735 11.7782 29.5041 11.7273 29.5308 11.676L28.9081 12.2692ZM28.9081 12.2692C28.8914 12.2639 28.8747 12.2588 28.8581 12.2538C28.5941 12.1751 28.294 12.1328 27.9806 12.135L28.9081 12.2692ZM29.426 20.7098L30.3147 21.1656C30.316 21.1654 30.3173 21.1652 30.3186 21.1651C30.3188 21.1651 30.3189 21.1651 30.3191 21.165C30.3588 21.1604 30.4002 21.1532 30.443 21.1432C30.6049 21.1052 30.7541 21.0328 30.8812 20.9378C30.8753 20.8462 30.8568 20.7501 30.8219 20.6535L29.426 20.7098ZM29.426 20.7098C29.4254 20.7088 29.4249 20.7078 29.4244 20.7069C29.4242 20.7065 29.424 20.7061 29.4238 20.7058C29.4069 20.6748 29.3911 20.6417 29.3764 20.6064C29.3394 20.5171 29.3166 20.4284 29.3048 20.3431L29.426 20.7098ZM22.977 29.3931C23.0262 29.3854 23.076 29.3815 23.1259 29.3815C23.1271 29.3815 23.1284 29.3815 23.1297 29.3815C23.2342 29.3819 23.3388 29.3998 23.4381 29.437C23.4388 29.4377 23.4396 29.4384 23.4404 29.439C23.4415 29.44 23.4426 29.441 23.4437 29.442C23.4987 29.5191 23.5454 29.6043 23.5819 29.695L22.5291 30.9606C22.4527 30.8798 22.3719 30.8026 22.2873 30.7292C22.2873 30.7292 22.2872 30.7291 22.2871 30.729C22.2733 30.7171 22.2594 30.7052 22.2454 30.6935L22.977 29.3931ZM18.9969 18.4046C19.7051 18.3172 20.4305 18.3026 21.1791 18.3685C20.8546 18.9452 20.4992 19.5078 20.1115 20.0556C19.7156 19.5132 19.3427 18.9624 18.9969 18.4046ZM8.71427 17.2677C8.78622 17.2688 8.86058 17.276 8.93652 17.2907C8.95556 17.3399 8.97585 17.3885 8.99736 17.4364C9.14589 17.7675 9.36351 18.0939 9.6511 18.3742C9.62923 18.3906 9.60738 18.407 9.58555 18.4235C9.58539 18.4236 9.58524 18.4237 9.58509 18.4238C9.50461 18.4844 9.42442 18.5454 9.34451 18.6067C9.31245 18.6061 9.28029 18.6044 9.24812 18.6015C9.24768 18.6015 9.24724 18.6014 9.2468 18.6014C9.13843 18.5914 9.02998 18.5678 8.92476 18.5293C8.84615 18.5006 8.77719 18.4667 8.71685 18.4301L8.29747 17.8918C8.27079 17.7864 8.26298 17.6661 8.28667 17.5352C8.29849 17.4698 8.31664 17.4103 8.3386 17.3568C8.33861 17.3568 8.33862 17.3568 8.33864 17.3567C8.34473 17.3419 8.35112 17.3275 8.35775 17.3136C8.46475 17.2838 8.58358 17.2662 8.70986 17.2677C8.71133 17.2677 8.7128 17.2677 8.71427 17.2677ZM8.29804 17.894L8.71564 18.4294C8.52341 18.3125 8.4188 18.1681 8.36792 18.0734C8.3393 18.0202 8.31496 17.96 8.29804 17.894ZM15.1227 10.8554C15.0867 10.8084 15.059 10.7624 15.0377 10.7194C15.0171 10.6434 14.9939 10.5689 14.9683 10.4961C14.9606 10.4398 14.9572 10.3687 14.9665 10.2863L15.1227 10.8554ZM15.1232 10.8561L14.9667 10.2848C14.9724 10.2351 14.9827 10.1813 14.9996 10.1241L15.2254 10.9688C15.1855 10.9312 15.1517 10.8933 15.1232 10.8561ZM15.0655 9.95463C15.1344 9.81253 15.2293 9.6912 15.3374 9.59352C15.4702 9.62832 15.5994 9.68699 15.7148 9.76955C15.8453 9.86303 15.9324 9.96712 15.99 10.0647C15.9901 10.0649 15.9902 10.0651 15.9903 10.0653L16.0324 10.2583C16.0324 10.2585 16.0324 10.2586 16.0324 10.2588C16.0474 10.3719 16.0691 10.4833 16.0973 10.5925C16.0856 10.6897 16.0569 10.7978 16.0015 10.9123C15.9579 11.0024 15.9046 11.0816 15.8459 11.1502C15.7689 11.1683 15.6919 11.1869 15.6151 11.206C15.493 11.1615 15.3804 11.0982 15.2848 11.0206C15.264 11.0037 15.2445 10.9867 15.2263 10.9696L14.9997 10.1236C15.0155 10.0701 15.0369 10.0135 15.0655 9.95463ZM16.0323 10.258L15.9904 10.0654C15.991 10.0665 15.9917 10.0675 15.9923 10.0686C16.0013 10.084 16.0096 10.0993 16.0171 10.1143C16.0206 10.1581 16.0252 10.2017 16.0307 10.245C16.0312 10.2494 16.0318 10.2537 16.0323 10.258ZM19.3744 8.87737C19.3744 8.87731 19.3762 8.87763 19.3796 8.8785C19.376 8.87786 19.3743 8.87743 19.3744 8.87737ZM15.8266 9.31338L15.8305 9.33118L15.8266 9.31338ZM13.3768 24.4018C13.1011 24.5158 12.8481 24.6673 12.6258 24.8451C12.4161 25.0129 12.2214 25.2142 12.0546 25.4448C11.8837 25.3531 11.72 25.21 11.5788 25.008L13.3768 24.4018ZM30.0687 21.1632C30.0535 21.1525 30.0382 21.142 30.0229 21.1316C29.8696 21.0282 29.7042 20.9373 29.5291 20.8618C29.4927 20.818 29.4579 20.7678 29.4264 20.7105L30.312 21.1659C30.2226 21.1758 30.1412 21.1733 30.0687 21.1632ZM22.5295 30.961L23.5839 29.6999C23.5939 29.725 23.6031 29.7507 23.6115 29.7766C23.6116 29.7768 23.6117 29.777 23.6117 29.7772C23.6558 29.9132 23.6773 30.0592 23.6707 30.2074C23.6565 30.5266 23.5216 30.737 23.4111 30.8523C23.2943 30.9743 23.0929 31.1072 22.8035 31.1321C22.7622 31.1356 22.7222 31.1367 22.6835 31.1357C22.6419 31.085 22.5988 31.0356 22.5542 30.9874C22.5527 30.9858 22.5513 30.9843 22.5498 30.9827C22.5431 30.9754 22.5363 30.9682 22.5295 30.961Z" stroke="#F8E1C5" stroke-width="4" style="mix-blend-mode:lighten"/>
</g>
<defs>
<radialGradient id="paint0_radial" cx="0" cy="0" r="1" gradientUnits="userSpaceOnUse" gradientTransform="translate(12.1806 5.69084) rotate(83.6715) scale(53.6539)">
<stop stop-color="#08338E"/>
<stop offset="1" stop-color="#1B094F"/>
<stop offset="1" stop-color="#0B1B44"/>
</radialGradient>
<radialGradient id="paint1_radial" cx="0" cy="0" r="1" gradientUnits="userSpaceOnUse" gradientTransform="translate(10.4023 11.0996) rotate(67.249) scale(24.8177 25.7488)">
<stop stop-color="#FFFFFE"/>
<stop offset="0.203125" stop-color="#F8E1C5"/>
<stop offset="0.989583" stop-color="#E89989"/>
</radialGradient>
<clipPath id="clip0">
<rect width="40" height="40" fill="white"/>
</clipPath>
</defs>
</svg>
