<svg width="40" height="40" viewBox="0 0 40 40" fill="none" xmlns="http://www.w3.org/2000/svg">
<g clip-path="url(#clip0)">
<path fill-rule="evenodd" clip-rule="evenodd" d="M38.375 27.0828C39.2227 24.8849 39.6875 22.4967 39.6875 20C39.6875 17.5033 39.2227 15.1151 38.375 12.9172V11.4688C38.375 6.0322 33.9678 1.625 28.5312 1.625H27.0828C24.8849 0.777266 22.4967 0.3125 20 0.3125C17.5033 0.3125 15.1151 0.777266 12.9172 1.625H11.4688C6.0322 1.625 1.625 6.0322 1.625 11.4688V12.9172C0.777266 15.1151 0.3125 17.5033 0.3125 20C0.3125 22.4967 0.777266 24.8849 1.625 27.0828V28.5312C1.625 33.9678 6.0322 38.375 11.4688 38.375H12.9172C15.1151 39.2227 17.5033 39.6875 20 39.6875C22.4967 39.6875 24.8849 39.2227 27.0828 38.375H28.5312C33.9678 38.375 38.375 33.9678 38.375 28.5312V27.0828Z" fill="white"/>
<path d="M18.0586 29.533C18.2121 29.6863 18.3658 29.8401 18.5216 29.9931C18.8003 30.2677 19.0858 30.5419 19.3776 30.8146C19.8904 31.3 20.4181 31.7702 20.9587 32.2245C22.0817 33.1678 20.6919 34.7004 19.4409 33.6099C18.6615 32.9306 17.8785 32.203 17.101 31.4381C16.9669 31.307 16.8333 31.1741 16.7003 31.0406C15.4655 29.8006 16.9076 28.3815 18.0586 29.533ZM23.4404 29.439C23.528 29.5173 23.6158 29.5952 23.7034 29.6723C24.8432 30.6683 23.3993 31.9455 22.4008 31.1149C22.263 30.9997 22.1186 30.892 21.9803 30.7782C21.0671 30.0291 22.3704 28.4825 23.4404 29.439ZM20.1076 8.84375C22.0382 8.84375 23.9688 9.11665 25.838 9.66251C25.4114 14.0597 24.0446 18.1795 21.3572 21.7401C21.766 22.2424 22.2022 22.7483 22.665 23.2583C24.6574 20.7398 26.3423 17.9326 27.0862 14.7851C27.3483 13.6715 29.4029 13.9686 28.9506 15.6573C28.0448 19.0442 26.2646 22.0208 24.0732 24.739C24.511 25.1531 24.9332 25.5528 25.392 25.9508C26.101 25.0756 26.7902 24.151 27.4291 23.1868C28.2975 21.8766 29.9173 23.0877 29.1604 24.2368C28.0982 25.8479 26.9072 27.3507 25.7109 28.7029C22.2983 25.9003 18.9341 22.4084 16.7613 18.5534C16.139 18.7611 15.5246 19.0313 14.9176 19.3634C16.5315 22.2645 18.7185 24.8343 21.0575 27.1742C22.0207 28.1378 20.6241 29.6267 19.5804 28.5435C17.1994 26.0552 14.9122 23.496 13.2143 20.4746C12.7128 20.7983 12.2205 21.1365 11.7386 21.488C12.175 22.255 12.6511 23.0035 13.1524 23.728C14.2033 25.2457 12.4565 26.2635 11.5788 25.008C10.7309 23.7953 9.9642 22.5297 9.29498 21.2099C13.1067 18.0282 17.1355 15.6913 22.2186 16.4816C22.4491 15.9623 22.6468 15.4477 22.8117 14.9382C20.4033 14.4875 17.889 14.6489 15.5591 15.41C14.3726 15.7978 13.2347 16.3946 12.1175 17.0404C10.967 17.7046 10.0713 15.881 11.3447 15.145C12.5404 14.4544 13.7724 13.8375 15.2169 13.3918C17.8213 12.5889 20.6137 12.4403 23.2881 12.9627C23.4091 12.3846 23.5168 11.8007 23.6102 11.2119C22.454 10.9881 21.2811 10.8761 20.1076 10.8761C19.9322 10.8761 19.7567 10.8789 19.5813 10.8838C17.4073 10.9451 17.654 8.85983 19.3002 8.85983C19.5696 8.85983 19.8385 8.84375 20.1076 8.84375ZM15.3423 26.5787C15.4821 26.7434 15.6217 26.9073 15.7619 27.0683C16.6097 28.0431 15.0587 29.3446 14.2119 28.3696C14.0616 28.1942 13.9105 28.0195 13.7617 27.8428C12.8602 26.7706 14.4389 25.5072 15.3423 26.5787ZM31.1812 20.6742C31.063 20.9243 30.9408 21.1722 30.8142 21.419C30.1486 22.718 28.396 21.6999 29.0126 20.4978C29.1518 20.2269 29.2854 19.9537 29.4127 19.6786C29.9234 18.5793 31.7673 19.433 31.1812 20.6742ZM9.7594 18.6541C9.57695 18.7922 9.39543 18.9315 9.21625 19.0712C8.19769 19.8647 7.14175 18.0579 8.25656 17.2444C8.4827 17.0792 8.70697 16.9167 8.92939 16.7569C9.84724 16.0985 10.935 17.7679 9.7594 18.6541ZM33.037 14.0176C32.9513 15.2394 32.7144 16.4493 32.3584 17.6354C32.0274 18.7389 30.0694 18.3234 30.5082 16.7419C30.8189 15.6187 31.0291 14.467 31.1926 13.314C31.327 12.3673 33.1601 12.2723 33.037 14.0176ZM12.4441 12.5458C12.3792 12.5756 12.3145 12.6059 12.2502 12.6362C10.8055 13.3189 9.65661 14.1137 8.43971 14.9959C7.20809 15.8884 6.3019 14.0333 7.56693 13.1483C8.92026 12.0941 10.3738 11.2338 11.8907 10.567C12.9606 10.097 13.7998 11.9236 12.4441 12.5458ZM29.6606 11.6763C29.6197 11.9892 29.6043 12.1083 29.5585 12.423C29.4078 13.4556 27.431 13.2763 27.6046 11.8007C27.6431 11.4684 27.6524 11.3548 27.6809 11.0209C27.7718 9.95522 29.8585 10.1616 29.6606 11.6763ZM16.2569 11.2852C15.9385 11.3548 15.6206 11.4328 15.305 11.5194C14.1203 11.844 13.5458 9.88654 14.8431 9.53904C15.1683 9.45208 15.4954 9.37101 15.8236 9.29952C16.966 9.05074 17.4773 11.0197 16.2569 11.2852Z" fill="#0B1B44"/>
</g>
<defs>
<clipPath id="clip0">
<rect width="40" height="40" fill="white"/>
</clipPath>
</defs>
</svg>
